<!-- Generated by IcoMoon.io -->
<svg version="1.1" xmlns="http://www.w3.org/2000/svg" width="32" height="32" viewBox="0 0 32 32">
<title>delete</title>
<path d="M11 6v-3.002c0-0.552 0.448-1 1-1v0h8c0.552 0 1 0.448 1 1v0 3.002h8c0.552 0 1 0.448 1 1s-0.448 1-1 1v0h-26c-0.552 0-1-0.448-1-1s0.448-1 1-1v0h8zM13 6h6v-2h-6v2zM6 30c-0.552 0-1-0.448-1-1v0-21h22v21c0 0.552-0.448 1-1 1v0h-20zM13 24c0.552 0 1-0.448 1-1v0-10c0-0.552-0.448-1-1-1s-1 0.448-1 1v0 10c0 0.552 0.448 1 1 1v0zM19 24c0.552 0 1-0.448 1-1v0-10c0-0.552-0.448-1-1-1s-1 0.448-1 1v0 10c0 0.552 0.448 1 1 1v0z"></path>
</svg>
