<!-- Generated by IcoMoon.io -->
<svg version="1.1" xmlns="http://www.w3.org/2000/svg" width="32" height="32" viewBox="0 0 32 32">
<title>double-down-chevron</title>
<path d="M7.609 5.724c-0.521-0.521-1.365-0.521-1.886 0s-0.521 1.365 0 1.886l9.333 9.333c0.521 0.521 1.365 0.521 1.886 0l9.333-9.333c0.521-0.521 0.521-1.365 0-1.886s-1.365-0.521-1.886 0l-8.391 8.391-8.391-8.391zM7.609 15.057c-0.521-0.521-1.365-0.521-1.886 0s-0.521 1.365 0 1.886l9.333 9.333c0.521 0.521 1.365 0.521 1.886 0l9.333-9.333c0.521-0.521 0.521-1.365 0-1.886s-1.365-0.521-1.886 0l-8.391 8.391-8.391-8.391z"></path>
</svg>
