<!-- Generated by IcoMoon.io -->
<svg version="1.1" xmlns="http://www.w3.org/2000/svg" width="32" height="32" viewBox="0 0 32 32">
<title>double-up-chevron</title>
<path d="M16.943 5.724c-0.25-0.25-0.589-0.391-0.943-0.391s-0.693 0.14-0.943 0.391l-9.333 9.333c-0.521 0.521-0.521 1.365 0 1.886s1.365 0.521 1.886 0l8.391-8.391 8.391 8.391c0.521 0.521 1.365 0.521 1.886 0s0.521-1.365 0-1.886l-9.333-9.333zM16.943 15.057c-0.25-0.25-0.589-0.391-0.943-0.391s-0.693 0.141-0.943 0.391l-9.333 9.333c-0.521 0.521-0.521 1.365 0 1.886s1.365 0.521 1.886 0l8.391-8.391 8.391 8.391c0.521 0.521 1.365 0.521 1.886 0s0.521-1.365 0-1.886l-9.333-9.333z"></path>
</svg>
