<!-- Generated by IcoMoon.io -->
<svg version="1.1" xmlns="http://www.w3.org/2000/svg" width="32" height="32" viewBox="0 0 32 32">
<title>house</title>
<path d="M17.177 6.244l0.124 0.117 9.296 9.132-0.997 1.014-1.28-1.257 0.001 9.639c0 0.75-0.58 1.364-1.316 1.418l-0.106 0.004h-14.222c-0.75 0-1.364-0.58-1.419-1.316l-0.004-0.106-0.001-9.638-1.279 1.257-0.997-1.014 9.286-9.123c0.791-0.808 2.068-0.853 2.913-0.126zM15.338 7.314l-0.068 0.062-6.594 6.478 0.001 11.036 3.555-0.001 0.001-7.11c0-0.75 0.58-1.364 1.316-1.419l0.106-0.004h4.267c0.75 0 1.364 0.58 1.419 1.316l0.004 0.106-0.001 7.11 3.556 0.001-0.001-11.036-6.613-6.497c-0.259-0.254-0.663-0.27-0.947-0.042zM17.921 17.778h-4.267l-0.001 7.11h4.267l0.001-7.11z"></path>
</svg>
