<!-- Generated by IcoMoon.io -->
<svg version="1.1" xmlns="http://www.w3.org/2000/svg" width="32" height="32" viewBox="0 0 32 32">
<title>plant</title>
<path d="M24.316 7.894c-1.681-2.815-3.983-5.099-6.726-6.711l-0.089-0.048-0.501-0.29-0.501 0.29c-5.666 3.314-9.412 9.369-9.412 16.298 0 0.003 0 0.005 0 0.008v0c0 0.215 0.004 0.434 0.011 0.65 0.099 2.928 1.219 5.393 3.239 7.126 1.545 1.327 3.527 2.136 5.663 2.33v3.454h2v-16h-2v10.533c-3.379-0.391-6.742-2.778-6.903-7.511-0.007-0.193-0.010-0.389-0.010-0.582 0.013-5.987 3.139-11.242 7.844-14.232l0.069-0.041c4.774 3.031 7.9 8.286 7.912 14.271v0.002c0 0.193-0.003 0.389-0.010 0.582-0.128 3.786-2.307 6.070-4.903 7.034v2.117c1.414-0.408 2.639-1.081 3.676-1.967l-0.013 0.011c2.019-1.733 3.139-4.198 3.239-7.126 0.007-0.216 0.011-0.435 0.011-0.65 0-0.003 0-0.006 0-0.010 0-3.516-0.965-6.807-2.644-9.622l0.048 0.086z"></path>
</svg>
