<!-- Generated by IcoMoon.io -->
<svg version="1.1" xmlns="http://www.w3.org/2000/svg" width="32" height="32" viewBox="0 0 32 32">
<title>shape</title>
<path d="M25.333 10.667c-0.736 0-1.333-0.597-1.333-1.333v-0.095l-16.004-2.462c-0.056 0.685-0.629 1.224-1.329 1.224v16c0.699 0 1.273 0.539 1.329 1.224l16.004-2.462v-0.095c0-0.736 0.597-1.333 1.333-1.333v-10.667zM26.667 10.667v10.667c0.736 0 1.333 0.597 1.333 1.333v1.333c0 0.736-0.597 1.333-1.333 1.333h-1.333c-0.699 0-1.273-0.539-1.329-1.224l-16.004 2.462v0.095c0 0.736-0.597 1.333-1.333 1.333h-1.333c-0.736 0-1.333-0.597-1.333-1.333v-1.333c0-0.736 0.597-1.333 1.333-1.333v-16c-0.736 0-1.333-0.597-1.333-1.333v-1.333c0-0.736 0.597-1.333 1.333-1.333h1.333c0.736 0 1.333 0.597 1.333 1.333v0.095l16.004 2.462c0.056-0.685 0.629-1.224 1.329-1.224h1.333c0.736 0 1.333 0.597 1.333 1.333v1.333c0 0.736-0.597 1.333-1.333 1.333zM6.667 25.988v-0.655h-1.333v1.333h1.333v-0.656c0-0.007 0-0.015 0-0.022v0zM25.333 23.345v0.655h1.333v-1.333h-1.333v0.656c0 0.007 0 0.015 0 0.022v0zM6.667 5.99v-0.656h-1.333v1.333h1.333v-0.655c0-0.007 0-0.015 0-0.022v0zM25.333 8.677v0.656h1.333v-1.333h-1.333v0.655c0 0.007 0 0.015 0 0.022v0z"></path>
</svg>
