<!-- icon666.com - MILLIONS vector ICONS FREE --><svg id="Capa_1" enable-background="new 0 0 512 512" viewBox="0 0 512 512" xmlns="http://www.w3.org/2000/svg"><g><path d="m484.297 504.5h-456.594c-11.158 0-20.203-9.045-20.203-20.203v-456.594c0-11.158 9.045-20.203 20.203-20.203h456.594c11.158 0 20.203 9.045 20.203 20.203v456.594c0 11.158-9.045 20.203-20.203 20.203z" fill="#bbec6c"></path><path d="m484.297 7.5h-40.407c11.158 0 20.203 9.045 20.203 20.203v456.594c0 11.158-9.045 20.203-20.203 20.203h40.406c11.158 0 20.203-9.045 20.203-20.203v-456.594c.001-11.158-9.044-20.203-20.202-20.203z" fill="#a2e62e"></path><path d="m356.486 504.5 19.874-41.987c41.297-87.247 21.552-191.177-48.865-257.2l-25.724-24.119c-35.935-33.692-45.398-87.022-23.25-131.021l21.481-42.673h-67.408l-51.734 61.618c-28.215 33.606-34.011 80.669-14.792 120.117l22.359 45.893c24.601 50.494 21.941 110.014-7.066 158.113l-67.096 111.259z" fill="#e8ad8c"></path><path d="m327.496 205.313-25.724-24.119c-35.935-33.692-45.398-87.022-23.25-131.021l21.479-42.673h-32.325l-21.48 42.673c-22.148 43.999-12.684 97.329 23.25 131.021l25.724 24.119c70.417 66.023 90.162 169.953 48.865 257.2l-19.874 41.987h32.325l19.874-41.987c41.298-87.248 21.553-191.177-48.864-257.2z" fill="#e19974"></path><g><path d="m395.115 74.644c.02-.325.049-.648.049-.979 0-8.926-7.236-16.163-16.163-16.163-1.89 0-3.696.341-5.382.937-4.444-5.499-11.241-9.019-18.862-9.019-13.39 0-24.244 10.854-24.244 24.244-8.926 0-16.163 7.236-16.163 16.163s7.236 16.163 16.163 16.163h59.106c8.926 0 16.163-7.236 16.163-16.163.001-6.993-4.45-12.932-10.667-15.183z" fill="#97d729"></path><path d="m395.115 74.644c.02-.325.049-.648.049-.979 0-8.926-7.236-16.163-16.163-16.163-.348 0-.69.024-1.032.046-.276 14.219-5.604 30.044-15.978 44.218-1.067 1.458-2.175 2.858-3.304 4.224h30.932c8.926 0 16.163-7.236 16.163-16.163.001-6.993-4.45-12.932-10.667-15.183z" fill="#8bc727"></path></g><g><path d="m160.145 390.467c.02-.325.049-.648.049-.979 0-8.926-7.236-16.163-16.163-16.163-1.89 0-3.696.341-5.382.937-4.444-5.499-11.241-9.019-18.862-9.019-13.39 0-24.244 10.854-24.244 24.244-8.926 0-16.163 7.236-16.163 16.163 0 8.926 7.236 16.163 16.163 16.163h59.106c8.926 0 16.163-7.236 16.163-16.163.001-6.993-4.45-12.932-10.667-15.183z" fill="#97d729"></path><path d="m160.145 390.467c.02-.325.049-.648.049-.979 0-8.926-7.236-16.163-16.163-16.163-.348 0-.69.024-1.032.046-.276 14.219-5.604 30.044-15.978 44.218-1.067 1.458-2.175 2.858-3.304 4.224h30.932c8.926 0 16.163-7.236 16.163-16.163.001-6.993-4.45-12.932-10.667-15.183z" fill="#8bc727"></path></g><g><path d="m130.013 252.938c.02-.325.049-.648.049-.979 0-8.926-7.236-16.163-16.163-16.163-1.89 0-3.696.341-5.382.937-4.444-5.499-11.241-9.019-18.862-9.019-13.39 0-24.244 10.854-24.244 24.244-8.926 0-16.163 7.236-16.163 16.163s7.236 16.163 16.163 16.163h59.106s16.163-7.236 16.163-16.163c.001-6.993-4.45-12.932-10.667-15.183z" fill="#97d729"></path><path d="m130.013 252.938c.02-.325.049-.648.049-.979 0-8.926-7.236-16.163-16.163-16.163-.348 0-.69.024-1.032.046-.276 14.219-5.604 30.044-15.978 44.218-1.067 1.458-2.175 2.858-3.304 4.224h30.932c8.926 0 16.163-7.236 16.163-16.163.001-6.993-4.45-12.932-10.667-15.183z" fill="#8bc727"></path></g><g><path d="m461.83 166.49c.02-.325.049-.648.049-.979 0-8.926-7.236-16.163-16.163-16.163-1.89 0-3.696.341-5.382.937-4.444-5.499-11.241-9.019-18.862-9.019-13.39 0-24.244 10.854-24.244 24.244-8.926 0-16.163 7.236-16.163 16.163 0 8.926 7.236 16.163 16.163 16.163h59.106c8.926 0 16.163-7.236 16.163-16.163.001-6.993-4.45-12.932-10.667-15.183z" fill="#97d729"></path><path d="m461.83 166.49c.02-.325.049-.648.049-.979 0-8.926-7.236-16.163-16.163-16.163-.348 0-.69.024-1.032.046-.276 14.219-5.604 30.044-15.978 44.218-1.067 1.458-2.175 2.858-3.304 4.224h30.932c8.926 0 16.163-7.236 16.163-16.163.001-6.993-4.45-12.932-10.667-15.183z" fill="#8bc727"></path></g><path d="m206.301 194.823 4.12-7.199c1.463-2.556 4.183-4.134 7.128-4.134h4.219c2.879 0 5.548-1.508 7.035-3.974l3.879-6.437c1.486-2.466 4.155-3.974 7.035-3.974h5.235c3.68 0 6.912 2.448 7.907 5.992l6.811 24.241c.969 3.448-.408 7.126-3.403 9.09l-4.286 2.811c-1.713 1.123-3.784 1.566-5.806 1.241l-34.048-5.468c-5.668-.91-8.677-7.207-5.826-12.189z" fill="#9c9c9c"></path><path d="m278.124 385.265 4.832-7.995c1.539-2.546 3.934-4.46 6.757-5.399l15.788-5.252c2.676-.89 4.973-2.659 6.518-5.018l7.563-11.554c2.311-3.53 6.246-5.658 10.466-5.658h8.578c5.493 0 10.343 3.583 11.957 8.833l10.709 34.837c2.473 8.043-3.542 16.184-11.957 16.184h-60.505c-9.742.001-15.745-10.641-10.706-18.978z" fill="#bfbfbf"></path><g><path d="m484.3 0h-335.03c-4.143 0-7.5 3.358-7.5 7.5s3.357 7.5 7.5 7.5h67.232l-41.385 49.297c-30.086 35.835-36.283 86.164-15.788 128.217l14.56 29.89c1.299 2.667 3.969 4.217 6.748 4.217 1.102 0 2.221-.244 3.278-.759 3.724-1.814 5.272-6.303 3.458-10.027l-14.56-29.892c-17.903-36.736-12.489-80.699 13.792-112.002l49.481-58.941h51.744l-16.008 31.801c-11.601 23.045-15.349 48.654-10.841 74.058s16.839 48.159 35.66 65.806l25.725 24.119c33.385 31.301 55.545 71.611 64.087 116.57s2.707 90.587-16.872 131.951l-17.843 37.695h-224.187l60.233-99.886c27.184-45.075 32.437-99.282 14.413-148.723-1.419-3.891-5.722-5.898-9.614-4.478-3.892 1.418-5.896 5.724-4.479 9.615 16.462 45.157 11.663 94.668-13.166 135.838l-1.319 2.188c-1.695-2.278-3.793-4.261-6.221-5.818-1.804-11.271-11.595-19.911-23.365-19.911-.965 0-1.928.06-2.886.18-5.806-5.297-13.364-8.261-21.358-8.261-15.278 0-28.07 10.85-31.076 25.249-9.727 2.939-16.83 11.984-16.83 22.657 0 13.047 10.615 23.663 23.662 23.663h55.306l-40.817 67.687h-82.334c-7.003 0-12.7-5.697-12.7-12.7v-456.6c0-7.003 5.697-12.7 12.7-12.7h86.569c4.143 0 7.5-3.358 7.5-7.5s-3.357-7.5-7.5-7.5h-86.569c-15.274 0-27.7 12.426-27.7 27.7v456.6c0 15.274 12.426 27.7 27.7 27.7h390.06c4.143 0 7.5-3.358 7.5-7.5s-3.357-7.5-7.5-7.5h-49.425l14.805-31.279c20.946-44.253 27.188-93.068 18.05-141.167-9.138-48.1-32.847-91.225-68.563-124.712l-25.725-24.119c-16.441-15.416-27.213-35.293-31.151-57.485-3.938-22.191-.663-44.562 9.471-64.693l19.401-38.545h179.677c7.003 0 12.7 5.697 12.7 12.7v456.6c0 7.003-5.697 12.7-12.7 12.7h-31.54c-4.143 0-7.5 3.358-7.5 7.5s3.357 7.5 7.5 7.5h31.54c15.274 0 27.7-12.426 27.7-27.7v-456.6c0-15.274-12.426-27.7-27.7-27.7zm-397.418 405.651c0-4.776 3.886-8.663 8.662-8.663 4.143 0 7.5-3.358 7.5-7.5 0-9.232 7.512-16.744 16.744-16.744 5.078 0 9.827 2.272 13.028 6.233 1.998 2.472 5.336 3.414 8.333 2.357.954-.337 1.925-.509 2.883-.509 4.776 0 8.662 3.886 8.663 8.621l-.037.572c-.199 3.317 1.809 6.37 4.934 7.501 3.422 1.239 5.721 4.506 5.721 8.131 0 4.776-3.886 8.663-8.662 8.663h-59.107c-4.776 0-8.662-3.886-8.662-8.662z"></path><path d="m413.283 89.828c0-8.145-4.231-15.626-10.916-19.915-1.804-11.271-11.595-19.911-23.365-19.911-.965 0-1.927.06-2.885.18-5.806-5.297-13.365-8.261-21.359-8.261-15.278 0-28.07 10.85-31.076 25.249-9.727 2.939-16.83 11.984-16.83 22.657 0 13.047 10.615 23.663 23.662 23.663h59.106c13.048.001 23.663-10.615 23.663-23.662zm-91.431 0c0-4.776 3.886-8.663 8.662-8.663 4.143 0 7.5-3.358 7.5-7.5 0-9.232 7.512-16.744 16.744-16.744 5.079 0 9.828 2.272 13.029 6.233 1.998 2.472 5.336 3.415 8.334 2.356.953-.337 1.923-.508 2.881-.508 4.776 0 8.662 3.886 8.662 8.628l-.035.564c-.199 3.317 1.809 6.37 4.933 7.501 3.423 1.239 5.722 4.507 5.722 8.132 0 4.776-3.887 8.663-8.663 8.663h-59.106c-4.778.001-8.663-3.886-8.663-8.662z"></path><path d="m111.016 228.477c-5.806-5.297-13.365-8.261-21.359-8.261-15.278 0-28.07 10.85-31.076 25.25-9.729 2.938-16.831 11.983-16.831 22.657 0 13.047 10.615 23.663 23.663 23.663h59.105c13.048 0 23.663-10.615 23.663-23.663 0-8.144-4.231-15.626-10.915-19.915-1.804-11.271-11.595-19.911-23.366-19.911-.964 0-1.927.06-2.884.18zm11.547 23.44-.037.572c-.199 3.317 1.809 6.369 4.933 7.5 3.423 1.239 5.722 4.507 5.722 8.132 0 4.776-3.887 8.663-8.663 8.663h-59.106c-4.776 0-8.663-3.886-8.663-8.663s3.887-8.663 8.663-8.663c4.143 0 7.5-3.358 7.5-7.5 0-9.233 7.512-16.744 16.744-16.744 5.078 0 9.827 2.272 13.028 6.233 1.999 2.472 5.337 3.416 8.331 2.357.956-.337 1.926-.509 2.884-.509 4.777.002 8.663 3.888 8.664 8.622z"></path><path d="m397.229 205.336h59.106c13.047 0 23.662-10.615 23.662-23.663 0-8.144-4.231-15.625-10.915-19.914-1.804-11.271-11.595-19.911-23.366-19.911-.965 0-1.927.06-2.885.18-5.806-5.297-13.364-8.261-21.358-8.261-15.278 0-28.07 10.85-31.076 25.249-9.729 2.938-16.831 11.983-16.831 22.657 0 13.048 10.616 23.663 23.663 23.663zm0-32.325c4.143 0 7.5-3.358 7.5-7.5 0-9.232 7.512-16.744 16.744-16.744 5.078 0 9.827 2.272 13.028 6.233 1.998 2.472 5.335 3.414 8.333 2.357.954-.337 1.924-.509 2.882-.509 4.776 0 8.663 3.886 8.664 8.621l-.037.572c-.199 3.317 1.809 6.369 4.933 7.5 3.423 1.239 5.722 4.507 5.722 8.132 0 4.776-3.886 8.663-8.662 8.663h-59.106c-4.776 0-8.663-3.886-8.663-8.663s3.886-8.662 8.662-8.662z"></path><path d="m436.566 272.128c2.796 2.899 7.812 2.898 10.607 0l13.226-13.226c2.929-2.929 2.929-7.678 0-10.606-2.93-2.929-7.678-2.929-10.607 0l-.422.422v-3.542c0-4.142-3.357-7.5-7.5-7.5s-7.5 3.358-7.5 7.5v3.542l-.422-.422c-2.93-2.929-7.678-2.929-10.607 0s-2.929 7.678 0 10.606z"></path><path d="m38.458 182.822 13.226 13.226c2.796 2.899 7.812 2.898 10.607 0l13.226-13.226c2.929-2.929 2.929-7.678 0-10.606-2.93-2.929-7.678-2.929-10.607 0l-.422.422v-3.543c0-4.142-3.357-7.5-7.5-7.5s-7.5 3.358-7.5 7.5v3.543l-.422-.422c-2.93-2.929-7.678-2.929-10.607 0-2.93 2.929-2.93 7.678-.001 10.606z"></path><path d="m110.14 113.152-.422.422v-3.543c0-4.142-3.357-7.5-7.5-7.5s-7.5 3.358-7.5 7.5v3.543l-.422-.422c-2.93-2.929-7.678-2.929-10.607 0s-2.929 7.678 0 10.606l13.226 13.226c2.796 2.899 7.812 2.898 10.607 0l13.226-13.226c2.929-2.929 2.929-7.678 0-10.606-2.931-2.928-7.679-2.928-10.608 0z"></path><path d="m63.601 41.922c-4.143 0-7.5 3.358-7.5 7.5v3.542l-.422-.422c-2.93-2.929-7.678-2.929-10.607 0s-2.929 7.678 0 10.606l13.226 13.226c2.796 2.899 7.812 2.898 10.607 0l13.225-13.225c2.929-2.929 2.929-7.678 0-10.606-2.93-2.929-7.678-2.929-10.607 0l-.422.422v-3.542c0-4.143-3.358-7.501-7.5-7.501z"></path><path d="m449.822 362.062c2.797 2.876 7.793 2.858 10.577-.027l13.226-13.226c2.929-2.929 2.929-7.678 0-10.606-2.93-2.929-7.678-2.929-10.607 0l-.422.422v-3.543c0-4.142-3.357-7.5-7.5-7.5s-7.5 3.358-7.5 7.5v3.543l-.422-.422c-2.93-2.929-7.678-2.929-10.607 0s-2.929 7.678 0 10.606l13.226 13.226c.009.009.019.017.029.027z"></path><path d="m63.601 319.518c-4.143 0-7.5 3.358-7.5 7.5v3.543l-.422-.422c-2.93-2.929-7.678-2.929-10.607 0s-2.929 7.678 0 10.606l13.226 13.226c2.796 2.899 7.812 2.898 10.607 0l13.226-13.226c2.929-2.929 2.929-7.678 0-10.606-2.93-2.929-7.678-2.929-10.607 0l-.422.422v-3.543c-.001-4.143-3.359-7.5-7.501-7.5z"></path><path d="m210.938 214.417 34.049 5.468c.833.134 1.669.2 2.501.2 3.04 0 6.026-.883 8.605-2.574l4.288-2.812c5.756-3.775 8.371-10.764 6.51-17.39l-6.811-24.24c-1.896-6.75-8.116-11.464-15.128-11.464h-5.235c-5.475 0-10.632 2.913-13.458 7.603l-3.879 6.437c-.128.213-.362.345-.611.345h-4.219c-5.621 0-10.848 3.031-13.639 7.908l-4.119 7.199c-.001 0-.001 0-.001 0-2.562 4.477-2.763 9.928-.539 14.582 2.225 4.654 6.594 7.92 11.686 8.738zm1.873-15.869 4.12-7.199c.127-.221.363-.358.619-.358h4.219c5.476 0 10.633-2.913 13.459-7.603l3.879-6.437c.128-.213.362-.345.61-.345h5.235c.318 0 .601.214.687.521l6.811 24.241c.085.301-.034.618-.294.789l-4.287 2.811c-.148.097-.328.139-.504.108l-34.048-5.468c-.102-.016-.369-.059-.53-.396-.163-.339-.027-.575.024-.664z"></path><path d="m288.829 411.745h60.508c6.415 0 12.281-2.959 16.093-8.12 3.812-5.16 4.917-11.637 3.032-17.769l-10.709-34.838c-2.599-8.451-10.284-14.129-19.126-14.129h-8.578c-6.773 0-13.032 3.383-16.741 9.05l-7.562 11.554c-.616.941-1.544 1.655-2.61 2.01l-15.788 5.252c-4.512 1.5-8.351 4.568-10.808 8.636l-4.833 7.995c-.001 0-.001 0-.001 0-3.785 6.263-3.898 13.807-.304 20.18s10.11 10.179 17.427 10.179zm-4.287-22.6 4.834-7.997c.615-1.018 1.576-1.785 2.705-2.161l15.788-5.252c4.262-1.418 7.964-4.268 10.426-8.027l7.563-11.555c.929-1.418 2.495-2.265 4.19-2.265h8.578c2.214 0 4.138 1.421 4.788 3.537l10.709 34.838c.472 1.535.195 3.156-.759 4.448s-2.423 2.033-4.028 2.033h-60.508c-2.641 0-3.931-1.782-4.362-2.548-.432-.766-1.289-2.792.076-5.051z"></path></g></g></svg>