<!-- <svg xmlns="http://www.w3.org/2000/svg" version="1.1" xmlns:xlink="http://www.w3.org/1999/xlink" xmlns:svgjs="http://svgjs.dev/svgjs" viewBox="0 0 800 800" opacity="0.7" width="100" height="100">
    <g stroke-width="0.5" stroke="hsla(261, 58%, 37%, 1.00)" fill="none">
        <rect width="160" height="160" x="0" y="0"></rect>
        <rect width="160" height="160" x="160" y="0"></rect>
        <rect width="160" height="160" x="320" y="0"></rect>
        <rect width="160" height="160" x="480" y="0"></rect>
        <rect width="160" height="160" x="640" y="0"></rect>
        <rect width="160" height="160" x="800" y="0"></rect>
        <rect width="160" height="160" x="0" y="160"></rect>
        <rect width="160" height="160" x="160" y="160"></rect>
        <rect width="160" height="160" x="320" y="160"></rect>
        <rect width="160" height="160" x="480" y="160"></rect>
        <rect width="160" height="160" x="640" y="160"></rect>
        <rect width="160" height="160" x="800" y="160"></rect>
        <rect width="160" height="160" x="0" y="320"></rect>
        <rect width="160" height="160" x="160" y="320"></rect>
        <rect width="160" height="160" x="320" y="320"></rect>
        <rect width="160" height="160" x="480" y="320"></rect>
        <rect width="160" height="160" x="640" y="320"></rect>
        <rect width="160" height="160" x="800" y="320"></rect>
        <rect width="160" height="160" x="0" y="480"></rect>
        <rect width="160" height="160" x="160" y="480"></rect>
        <rect width="160" height="160" x="320" y="480"></rect>
        <rect width="160" height="160" x="480" y="480"></rect>
        <rect width="160" height="160" x="640" y="480"></rect>
        <rect width="160" height="160" x="800" y="480"></rect>
        <rect width="160" height="160" x="0" y="640"></rect>
        <rect width="160" height="160" x="160" y="640"></rect>
        <rect width="160" height="160" x="320" y="640"></rect>
        <rect width="160" height="160" x="480" y="640"></rect>
        <rect width="160" height="160" x="640" y="640"></rect>
        <rect width="160" height="160" x="800" y="640"></rect>
        <rect width="160" height="160" x="0" y="800"></rect>
        <rect width="160" height="160" x="160" y="800"></rect>
        <rect width="160" height="160" x="320" y="800"></rect>
        <rect width="160" height="160" x="480" y="800"></rect>
        <rect width="160" height="160" x="640" y="800"></rect>
        <rect width="160" height="160" x="800" y="800"></rect>
    </g>
</svg> -->

<svg width="100" height="100"  xmlns="http://www.w3.org/2000/svg" viewBox="0 0 100 100">
   <defs>
      <pattern id="p10" width="10" height="10" patternUnits="userSpaceOnUse">
        <path d="M 10 0 L 0 0 0 10" fill="none" stroke="gray" stroke-width="0.5"/>
      </pattern>
      <pattern id="p100" width="100" height="100" patternUnits="userSpaceOnUse">
        <rect width="100" height="100" fill="url(#p10)"/>
        <path d="M 100 0 L 0 0 0 100" fill="none" stroke="gray" stroke-width="1"/>
      </pattern>
    </defs>
    <rect width="100%" height="100%" fill="url(#p100)" />
  </svg>