<svg
  xmlns="http://www.w3.org/2000/svg"
  xmlns:xlink="http://www.w3.org/1999/xlink"
  viewBox="0 0 61 60"
  version="1.1"
>
  <title>013 - Mineral Veins</title>
  <desc>Created with Sketch.</desc>
  <defs></defs>
  <g id="Page-1" stroke="none" stroke-width="1" fill="none" fill-rule="evenodd">
    <g
      id="013---Mineral-Veins"
      transform="translate(-1.000000, 0.000000)"
      fill-rule="nonzero"
    >
      <rect
        id="Rectangle-path"
        fill="#00838F"
        x="2"
        y="1"
        width="58"
        height="58"
        rx="2"
      ></rect>
      <rect
        id="Rectangle-path"
        fill="#00BCD4"
        x="2"
        y="1"
        width="55"
        height="58"
        rx="2"
      ></rect>
      <path
        d="M45,7 C45,10.3137085 42.3137085,13 39,13 C38.4940975,12.9984622 37.9903084,12.9346489 37.5,12.81 C34.8510018,12.1285516 32.9993221,9.74024469 32.9993221,7.005 C32.9993221,4.26975531 34.8510018,1.88144836 37.5,1.2 C37.9889242,1.06713792 38.4933451,0.999881793 39,1 C42.3137085,1 45,3.6862915 45,7 Z"
        id="Shape"
        fill="#90AC00"
      ></path>
      <path
        d="M34,12 C34,15.3137085 31.3137085,18 28,18 C27.4940975,17.9984622 26.9903084,17.9346489 26.5,17.81 C23.8510018,17.1285516 21.9993221,14.7402447 21.9993221,12.005 C21.9993221,9.26975531 23.8510018,6.88144836 26.5,6.2 C26.9889242,6.06713792 27.4933451,5.99988179 28,6 C31.3137085,6 34,8.6862915 34,12 Z"
        id="Shape"
        fill="#90AC00"
      ></path>
      <path
        d="M42,7 C41.9935601,9.73389679 40.1454139,12.120059 37.5,12.81 C34.8510018,12.1285516 32.9993221,9.74024469 32.9993221,7.005 C32.9993221,4.26975531 34.8510018,1.88144836 37.5,1.2 C40.1456983,1.88311274 41.9956841,4.26753882 42,7 Z"
        id="Shape"
        fill="#A4C400"
      ></path>
      <path
        d="M31,12 C30.9935601,14.7338968 29.1454139,17.120059 26.5,17.81 C23.8510018,17.1285516 21.9993221,14.7402447 21.9993221,12.005 C21.9993221,9.26975531 23.8510018,6.88144836 26.5,6.2 C29.1456983,6.88311274 30.9956841,9.26753882 31,12 Z"
        id="Shape"
        fill="#A4C400"
      ></path>
      <path
        d="M20.88,23.61 C20.0464969,23.8966992 19.2286944,24.2271581 18.43,24.6 C14.84,26.29 11.58,28.71 7.47,30.69 C5.97471812,30.0745 4.99910539,28.6170057 5,27 C5.00958731,25.5745989 5.76962076,24.259741 7,23.54 C7.60747773,23.1870094 8.29741117,23.0007273 9,23 C9.12,23 9.23,23.01 9.35,23.02 C9.34,23 9.33,22.99 9.33,22.97 C9.11385668,22.5100174 9.00121115,22.0082327 9,21.5 C8.99840604,21.3391053 9.01179718,21.1784117 9.04,21.02 C9.07925949,20.749441 9.14972919,20.4843408 9.25,20.23 C9.84524133,18.68574 11.4437414,17.772383 13.0763619,18.043679 C14.7089825,18.314975 15.9261832,19.6962229 15.99,21.35 C16.0448254,21.3224241 16.1016534,21.2990244 16.16,21.28 C16.5811217,21.0907361 17.0383277,20.9952005 17.5,21 C19.0883822,21.0022478 20.4760983,22.0738273 20.88,23.61 Z"
        id="Shape"
        fill="#007900"
      ></path>
      <path
        d="M18.43,24.6 C14.84,26.29 11.58,28.71 7.47,30.69 C5.97471812,30.0745 4.99910539,28.6170057 5,27 C5.00048828,26.4337862 5.12328912,25.8743601 5.36,25.36 C5.8743601,25.1232891 6.43378616,25.0004883 7,25 C7.12,25 7.23,25.01 7.35,25.02 C7.34,25 7.33,24.99 7.33,24.97 C7.12327503,24.5209473 7.0109557,24.0342302 7,23.54 C7.60747773,23.1870094 8.29741117,23.0007273 9,23 C9.12,23 9.23,23.01 9.35,23.02 C9.34,23 9.33,22.99 9.33,22.97 C9.11385668,22.5100174 9.00121115,22.0082327 9,21.5 C8.99840604,21.3391053 9.01179718,21.1784117 9.04,21.02 C9.07925949,20.749441 9.14972919,20.4843408 9.25,20.23 C9.64894021,20.0769841 10.0727224,19.9990082 10.5,20 C11.6362565,20.0031067 12.7012182,20.5542057 13.36,21.48 C13.7469587,22.0290199 13.9658517,22.6787499 13.99,23.35 C14.0448254,23.3224241 14.1016534,23.2990244 14.16,23.28 C14.5811217,23.0907361 15.0383277,22.9952005 15.5,23 C16.685195,23.000412 17.7889405,23.6031399 18.43,24.6 Z"
        id="Shape"
        fill="#008A00"
      ></path>
      <path
        d="M2,48.17 L2,48.23 C2.55,48.23 3.09,48.23 3.62,48.22 C3.09,48.2 2.55,48.19 2,48.17 Z M41.92,37.02 C46.9916981,37.234998 52.0362355,37.8772733 57,38.94 L57,46.82 C58,46.96 59.01,47.13 60,47.31 L60,38.94 C54.0631277,37.6318393 47.9992027,36.9878827 41.92,37.02 Z M49.25,46.69 C49.7016302,46.5695812 50.1637275,46.4925649 50.63,46.46 C49.1669651,46.3067861 47.6889419,46.3843992 46.25,46.69 C42.14,47.85 48.78,51.69 57,53.63 L57,57 C56.9967052,58.1032019 56.1032019,58.9967052 55,59 L58,59 C59.1032019,58.9967052 59.9967052,58.1032019 60,57 L60,53.63 C51.78,51.69 45.14,47.85 49.25,46.69 Z"
        id="Shape"
        fill="#DFC49C"
      ></path>
      <path
        d="M28,39.85 C20.24,45.57 15,48.05 3.8,48.22 C17.12,48.45 22.58,46.06 31,39.85 C33.6,37.93 37.6,37.16 41.92,37.02 C36.5,36.87 31.2,37.49 28,39.85 Z M50.63,46.46 C52.7683943,46.6159502 54.8955334,46.8997914 57,47.31 L57,46.82 C54.8961826,46.4677549 52.7601087,46.3470349 50.63,46.46 Z"
        id="Shape"
        fill="#DFC49C"
      ></path>
      <path
        d="M57,53.63 L57,57 C56.9967052,58.1032019 56.1032019,58.9967052 55,59 L24.16,59 C28.34,56.09 33.88,55.75 37,54.19 C40.26,52.56 40.2,46.93 34.09,48.18 C32.3046391,48.5989854 30.5899275,49.2761111 29,50.19 C23.11,53.4 14.08,54.03 6.95,53.92 C5.15,53.9 3.48,53.83 2,53.74 L2,48.23 C2.55,48.23 3.09,48.23 3.62,48.22 L3.8,48.22 C17.12,48.45 22.58,46.06 31,39.85 C33.6,37.93 37.6,37.16 41.92,37.02 C46.9916981,37.234998 52.0362355,37.8772733 57,38.94 L57,46.82 C54.8961826,46.4677549 52.7601087,46.3470349 50.63,46.46 C49.1669651,46.3067861 47.6889419,46.3843992 46.25,46.69 C42.14,47.85 48.78,51.69 57,53.63 Z"
        id="Shape"
        fill="#FFE0B2"
      ></path>
      <path
        d="M60,24.67 L60,38.94 C59.11,38.75 58.1,38.56 57,38.36 L57,27.4 C58.1153532,26.6254481 59.124001,25.7075785 60,24.67 Z"
        id="Shape"
        fill="#783E22"
      ></path>
      <path
        d="M57,27.4 L57,38.36 C52.0297008,37.4180056 46.9785219,36.9691608 41.92,37.02 C37.6,37.16 33.6,37.93 31,39.85 C22.58,46.06 17.12,48.45 3.8,48.22 L3.62,48.22 C3.09,48.2 2.55,48.19 2,48.17 L2,42.51 C10.4087324,41.0863591 18.5204469,38.2675383 26,34.17 C33,30.17 35.04,32.42 47,31 C50.5846888,30.667453 54.0258968,29.4286182 57,27.4 Z"
        id="Shape"
        fill="#A0522D"
      ></path>
      <path
        d="M57,38.36 L57,38.94 C52.0362355,37.8772733 46.9916981,37.234998 41.92,37.02 C46.9785219,36.9691608 52.0297008,37.4180056 57,38.36 Z"
        id="Shape"
        fill="#783E22"
      ></path>
      <path
        d="M59,13.07 L59,24.67 C58.3939452,25.3854871 57.7245644,26.0448272 57,26.64 L57,15.07 C53.8593207,16.5290898 50.9323413,18.4097581 48.3,20.66 C51.29,17.23 55.64,14.69 59,13.07 Z"
        id="Shape"
        fill="#624421"
      ></path>
      <path
        d="M57,15.07 L57,26.64 C53.8396458,29.1395807 50.0146216,30.6556812 46,31 C34.04,32.42 32,30.17 25,34.17 C17.5204469,38.2675383 9.40873243,41.0863591 1,42.51 L1,37.29 C11.36,35.03 16.16,28.74 24,27 C32.13,25.19 41.07,26.65 46.41,22.53 C46.9927175,22.0777817 47.5257121,21.5649001 48,21 C48.1,20.88 48.19,20.77 48.3,20.66 C50.9323413,18.4097581 53.8593207,16.5290898 57,15.07 Z"
        id="Shape"
        fill="#825A2C"
      ></path>
      <path
        d="M48.3,20.66 C48.19,20.77 48.1,20.88 48,21 C47.5257121,21.5649001 46.9927175,22.0777817 46.41,22.53 C46.9995727,21.8670904 47.630856,21.2424873 48.3,20.66 Z"
        id="Shape"
        fill="#624421"
      ></path>
      <path
        d="M3.88,36.82 C10.91,34.08 15.28,29.67 21.51,28.12 C15.97,30.42 11.46,34.69 3.88,36.82 Z"
        id="Shape"
        fill="#549414"
      ></path>
      <path
        d="M39,21.13 C39.39,21.06 39.77,20.97 40.14,20.88 C38.8120229,21.4527404 37.4230432,21.8721184 36,22.13 C32.64,22.76 28.83,22.84 25,23.23 C23.3193475,23.3857397 21.6496391,23.6428747 20,24 C19.8440878,24.0293662 19.690389,24.0694615 19.54,24.12 C19.98,23.93 20.42,23.77 20.88,23.61 C21.5734531,23.3632735 22.281464,23.1595534 23,23 C24.6496391,22.6428747 26.3193475,22.3857397 28,22.23 C31.83,21.84 35.64,21.76 39,21.13 Z"
        id="Shape"
        fill="#549414"
      ></path>
      <path
        d="M60,8.17 L60,13.07 C56.53,14.74 52,17.4 49,21 C47.1966706,23.0280087 44.7686374,24.3968564 42.1,24.89 C43.6094014,24.2471523 44.9456628,23.2569482 46,22 C49,18.4 53.53,15.74 57,14.07 L57,9.57 C58.1,9.01 59.12,8.54 60,8.17 Z"
        id="Shape"
        fill="#549414"
      ></path>
      <path
        d="M57,9.57 L57,14.07 C53.53,15.74 51,18.9 48,22.5 C46.92,23.8 43.6,24.23 42.1,24.89 C37.06,26.09 30.82,25.71 25,27 C23.8061296,27.2704717 22.6383122,27.6452441 21.51,28.12 C15.28,29.67 10.91,34.08 3.88,36.82 C3.86354424,36.8243126 3.84684863,36.8276517 3.83,36.83 C3.24,37 2.63,37.15 2,37.29 L2,32.79 C3.87940259,32.2458389 5.70928856,31.5433233 7.47,30.69 C12,28.51 15.49,25.79 19.54,24.12 C19.690389,24.0694615 19.8440878,24.0293662 20,24 C21.6496391,23.6428747 23.3193475,23.3857397 25,23.23 C28.83,22.84 32.64,22.76 36,22.13 C37.4230432,21.8721184 38.8120229,21.4527404 40.14,20.88 C42.7937639,20.3834565 45.2070541,19.0185052 47,17 C49.8153489,13.8931857 53.2128358,11.3688529 57,9.57 Z"
        id="Shape"
        fill="#60A917"
      ></path>
      <path
        d="M42.1,24.89 C36.71,27.32 29.05,26.43 22,28 L21.51,28.12 C22.6383122,27.6452441 23.8061296,27.2704717 25,27 C30.82,25.71 37.06,26.09 42.1,24.89 Z"
        id="Shape"
        fill="#549414"
      ></path>
      <path
        d="M37,54.19 C33.88,55.75 28.34,56.09 24.16,59 L4,59 C2.8954305,59 2,58.1045695 2,57 L2,53.74 C9.32,54.19 21.63,54.21 29,50.19 C30.9650525,48.9855283 33.1767203,48.2403295 35.47,48.01 C40.19,47.83 40,52.69 37,54.19 Z"
        id="Shape"
        fill="#F57C00"
      ></path>
      <path
        d="M34,53.19 C30.88,54.75 25.34,55.09 21.16,58 L2.27,58 C2.09374649,57.6961604 2.00062334,57.3512598 2,57 L2,53.74 C9.32,54.19 21.63,54.21 29,50.19 C30.9650525,48.9855283 33.1767203,48.2403295 35.47,48.01 C36.81,49.48 36.08,52.15 34,53.19 Z"
        id="Shape"
        fill="#FF9801"
      ></path>
      <path
        d="M60,47.31 L60,53.63 C58.97,53.39 57.96,53.11 57,52.82 C50.28,50.77 45.66,47.7 49.25,46.69 C49.7016302,46.5695812 50.1637275,46.4925649 50.63,46.46 C53.7762338,46.3627246 56.9226303,46.6481501 60,47.31 Z"
        id="Shape"
        fill="#F57C00"
      ></path>
      <path
        d="M57,47.31 L57,52.82 C50.28,50.77 45.66,47.7 49.25,46.69 C49.7016302,46.5695812 50.1637275,46.4925649 50.63,46.46 C52.7683943,46.6159502 54.8955334,46.8997914 57,47.31 Z"
        id="Shape"
        fill="#FF9801"
      ></path>
      <path
        d="M39,14 C35.1340068,14 32,10.8659932 32,7 C32,3.13400675 35.1340068,7.10171439e-16 39,0 C42.8659932,-7.10171439e-16 46,3.13400675 46,7 C45.9955914,10.8641657 42.8641657,13.9955914 39,14 Z M39,2 C36.9776888,2 35.1545073,3.21821089 34.3806023,5.08658284 C33.6066973,6.95495479 34.0344761,9.10554393 35.4644661,10.5355339 C36.8944561,11.9655239 39.0450452,12.3933027 40.9134172,11.6193977 C42.7817891,10.8454927 44,9.02231122 44,7 C43.9966939,4.23994685 41.7600532,2.00330612 39,2 Z"
        id="Shape"
        fill="#000000"
      ></path>
      <path
        d="M39,22.13 C38.4477153,22.13 38,21.6822847 38,21.13 L38,6 C38,5.44771525 38.4477153,5 39,5 C39.5522847,5 40,5.44771525 40,6 L40,21.13 C40,21.6822847 39.5522847,22.13 39,22.13 Z"
        id="Shape"
        fill="#000000"
      ></path>
      <path
        d="M39,11 C38.7348052,10.9999434 38.4804927,10.8945494 38.293,10.707 L35.293,7.707 C34.9140278,7.31462111 34.9194476,6.69091522 35.3051814,6.30518142 C35.6909152,5.91944763 36.3146211,5.91402779 36.707,6.293 L39,8.586 L41.293,6.293 C41.5440745,6.03304342 41.9158779,5.9287874 42.2655073,6.02030284 C42.6151368,6.11181828 42.8881817,6.38486324 42.9796972,6.73449268 C43.0712126,7.08412211 42.9669566,7.45592553 42.707,7.707 L39.707,10.707 C39.5195073,10.8945494 39.2651948,10.9999434 39,11 Z"
        id="Shape"
        fill="#000000"
      ></path>
      <path
        d="M28,19 C24.1340068,19 21,15.8659932 21,12 C21,8.13400675 24.1340068,5 28,5 C31.8659932,5 35,8.13400675 35,12 C34.9955914,15.8641657 31.8641657,18.9955914 28,19 Z M28,7 C25.2385763,7 23,9.23857625 23,12 C23,14.7614237 25.2385763,17 28,17 C30.7614237,17 33,14.7614237 33,12 C32.9966939,9.23994685 30.7600532,7.00330612 28,7 Z"
        id="Shape"
        fill="#000000"
      ></path>
      <path
        d="M28,23.23 C27.4477153,23.23 27,22.7822847 27,22.23 L27,11 C27,10.4477153 27.4477153,10 28,10 C28.5522847,10 29,10.4477153 29,11 L29,22.23 C29,22.7822847 28.5522847,23.23 28,23.23 Z"
        id="Shape"
        fill="#000000"
      ></path>
      <path
        d="M28,16 C27.7348052,15.9999434 27.4804927,15.8945494 27.293,15.707 L24.293,12.707 C23.9140278,12.3146211 23.9194476,11.6909152 24.3051814,11.3051814 C24.6909152,10.9194476 25.3146211,10.9140278 25.707,11.293 L28,13.586 L30.293,11.293 C30.6853789,10.9140278 31.3090848,10.9194476 31.6948186,11.3051814 C32.0805524,11.6909152 32.0859722,12.3146211 31.707,12.707 L28.707,15.707 C28.5195073,15.8945494 28.2651948,15.9999434 28,16 Z"
        id="Shape"
        fill="#000000"
      ></path>
      <path
        d="M2,33.791 C1.50060348,33.7919775 1.07704264,33.4243713 1.00772314,32.9298082 C0.938403646,32.4352451 1.24457867,31.9653568 1.725,31.829 C5.59447522,30.6122115 9.27829732,28.8692267 12.673,26.649 C15.919,24.705 18.985,22.87 22.783,22.024 C25.782998,21.430977 28.8218985,21.0553337 31.876,20.9 C37.92,20.453 43.14,20.067 46.232,16.357 C49.849,12.01 55.502,9.004 59.606,7.247 C59.9345057,7.10623736 60.3131535,7.15142302 60.5993104,7.36553599 C60.8854672,7.57964896 61.0356592,7.93016038 60.9933104,8.28503599 C60.9509615,8.6399116 60.7225057,8.94523736 60.394,9.086 C57.194,10.454 51.309,13.386 47.769,17.637 C44.134,22 38.251,22.437 32.024,22.9 C29.066316,23.048081 26.1230817,23.4083406 23.217,23.978 C19.735,24.753 16.804,26.508 13.701,28.367 C10.1590073,30.6802883 6.31385017,32.4921495 2.275,33.751 C2.18571933,33.7774223 2.09310835,33.790893 2,33.791 Z"
        id="Shape"
        fill="#000000"
      ></path>
      <path
        d="M2,38.29 C1.48945904,38.2893691 1.06137106,37.9042538 1.00693617,37.3966227 C0.952501271,36.8889916 1.28920071,36.4218657 1.788,36.313 C7.181,35.136 10.993,32.854 14.679,30.646 C17.924,28.702 20.989,26.866 24.784,26.024 C27.7836689,25.4310247 30.8222335,25.0553816 33.876,24.9 C39.92,24.453 45.14,24.067 48.232,20.357 C51.377,16.582 56.132,13.819 59.566,12.166 C59.8897864,11.9933453 60.2821265,12.0118917 60.5881823,12.2143198 C60.894238,12.4167478 61.0648441,12.7705392 61.0326703,13.1360691 C61.0004965,13.501599 60.7707112,13.8201481 60.434,13.966 C57.178,15.533 52.684,18.136 49.768,21.635 C46.134,26 40.251,26.437 34.024,26.9 C31.066316,27.048081 28.1230817,27.4083406 25.217,27.978 C21.737,28.751 18.808,30.505 15.706,32.363 C12.059,34.547 7.926,37.023 2.213,38.269 C2.14298703,38.2838034 2.07155586,38.2908459 2,38.29 Z"
        id="Shape"
        fill="#000000"
      ></path>
      <path
        d="M58,60 L4,60 C2.34314575,60 1,58.6568542 1,57 L1,3 C1,1.34314575 2.34314575,3.04359188e-16 4,0 L58,0 C59.6568542,1.01453063e-16 61,1.34314575 61,3 L61,57 C61,58.6568542 59.6568542,60 58,60 Z M4,2 C3.44771525,2 3,2.44771525 3,3 L3,57 C3,57.5522847 3.44771525,58 4,58 L58,58 C58.5522847,58 59,57.5522847 59,57 L59,3 C59,2.44771525 58.5522847,2 58,2 L4,2 Z"
        id="Shape"
        fill="#000000"
      ></path>
      <path
        d="M2,43.51 C1.4802931,43.5096135 1.04750752,43.111196 1.00421872,42.5932949 C0.960929907,42.0753939 1.32156871,41.6106579 1.834,41.524 C10.1245806,40.1157317 18.1226907,37.3363665 25.5,33.3 C30.166,30.634 32.782,30.61 37.117,30.57 C40.3789786,30.5759623 43.6384168,30.3876288 46.878,30.006 C52.256,29.361 56.413,27.347 59.233,24.022 C59.4641508,23.7494064 59.82317,23.6208369 60.1748184,23.6847226 C60.5264669,23.7486083 60.8173208,23.9952433 60.9378184,24.3317226 C61.058316,24.6682019 60.9901508,25.0434064 60.759,25.316 C58.588,27.875 54.459,31.11 47.115,31.992 C43.8027858,32.3828322 40.4701867,32.5755085 37.135,32.569 C32.99,32.608 30.705,32.629 26.492,35.037 C18.9097392,39.1888933 10.6889454,42.0490199 2.167,43.5 C2.11167643,43.5076544 2.05584166,43.5109978 2,43.51 Z"
        id="Shape"
        fill="#000000"
      ></path>
      <path
        d="M5.514,49.231 C4.39,49.231 3.214,49.21 1.967,49.169 C1.60973439,49.1572103 1.28589711,48.9557171 1.11747454,48.6404212 C0.949051964,48.3251252 0.961631494,47.9439273 1.15047454,47.6404211 C1.33931759,47.3369149 1.67573439,47.1572102 2.033,47.169 C16.249,47.634 21.583,45.549 30.407,39.044 C37.101,34.106 51.949,36.244 60.207,37.96 C60.7384774,38.080617 61.0755056,38.6045962 60.9648528,39.1382371 C60.8541999,39.671878 60.3366176,40.0186499 59.801,39.918 C53.419,38.593 37.894,36.012 31.601,40.654 C23.272,46.79 17.671,49.231 5.514,49.231 Z"
        id="Shape"
        fill="#000000"
      ></path>
      <path
        d="M24.161,60 C23.7237616,60.000469 23.3369168,59.7168208 23.2058866,59.2996773 C23.0748563,58.8825338 23.2300268,58.4286315 23.589,58.179 C26.2440951,56.5293206 29.167065,55.3563423 32.226,54.713 C33.7088359,54.3764968 35.1573464,53.9034797 36.553,53.3 C37.4645578,52.8549846 38.0714033,51.9595638 38.147,50.948 C38.2010927,50.3279943 37.9063456,49.7292533 37.382,49.394 C36.856,49.063 34.729,48.209 29.482,51.073 C22.182,55.056 10.475,55.265 1.941,54.743 C1.38871525,54.7087583 0.968758346,54.2332847 1.003,53.681 C1.03724165,53.1287153 1.51271525,52.7087583 2.065,52.743 C8.835,53.16 21.276,53.267 28.524,49.313 C34.051,46.299 36.971,46.77 38.447,47.695 C39.5917104,48.4070223 40.2465915,49.6955971 40.147,51.04 C40.0300308,52.7724245 39.0020551,54.3124845 37.447,55.085 C35.9335738,55.753953 34.3597768,56.2769893 32.747,56.647 C29.9141319,57.2384167 27.2040049,58.3123874 24.735,59.822 C24.5666448,59.9391966 24.3661259,60.0013784 24.161,60 Z"
        id="Shape"
        fill="#000000"
      ></path>
      <path
        d="M60,54.63 C59.922523,54.6303435 59.8452911,54.6212771 59.77,54.603 C54.67,53.4 47.06,50.586 47,47.771 C46.987,47.22 47.229,46.222 48.98,45.728 C51.071,45.142 54.84,45.343 60.18,46.328 C60.7080837,46.4421688 61.0499927,46.9551528 60.9521548,47.4865046 C60.8543168,48.0178564 60.3521149,48.3754141 59.818,48.294 C53.541,47.139 50.753,47.308 49.518,47.654 C49.3579778,47.6954403 49.2030343,47.7544664 49.056,47.83 C49.644,48.78 53.736,51.13 60.227,52.658 C60.7179196,52.7766115 61.0433417,53.2426552 60.9855865,53.7443872 C60.9278314,54.2461193 60.5050297,54.6260338 60,54.63 Z"
        id="Shape"
        fill="#000000"
      ></path>
      <circle id="Oval" fill="#000000" cx="37" cy="45" r="1"></circle>
      <circle id="Oval" fill="#000000" cx="44" cy="40" r="1"></circle>
      <circle id="Oval" fill="#000000" cx="41" cy="43" r="1"></circle>
      <circle id="Oval" fill="#000000" cx="40" cy="56" r="1"></circle>
      <circle id="Oval" fill="#000000" cx="44" cy="56" r="1"></circle>
      <circle id="Oval" fill="#000000" cx="48" cy="56" r="1"></circle>
      <circle id="Oval" fill="#000000" cx="56" cy="56" r="1"></circle>
      <circle id="Oval" fill="#000000" cx="52" cy="56" r="1"></circle>
      <circle id="Oval" fill="#000000" cx="47" cy="53" r="1"></circle>
      <circle id="Oval" fill="#000000" cx="43" cy="53" r="1"></circle>
      <circle id="Oval" fill="#000000" cx="44" cy="50" r="1"></circle>
      <circle id="Oval" fill="#000000" cx="41" cy="47" r="1"></circle>
      <circle id="Oval" fill="#000000" cx="48" cy="40" r="1"></circle>
      <circle id="Oval" fill="#000000" cx="52" cy="41" r="1"></circle>
      <circle id="Oval" fill="#000000" cx="46" cy="43" r="1"></circle>
      <circle id="Oval" fill="#000000" cx="45" cy="46" r="1"></circle>
      <circle id="Oval" fill="#000000" cx="50" cy="43" r="1"></circle>
      <circle id="Oval" fill="#000000" cx="55" cy="43" r="1"></circle>
      <circle id="Oval" fill="#000000" cx="40" cy="40" r="1"></circle>
      <circle id="Oval" fill="#000000" cx="36" cy="41" r="1"></circle>
      <circle id="Oval" fill="#000000" cx="33" cy="44" r="1"></circle>
      <circle id="Oval" fill="#000000" cx="29" cy="46" r="1"></circle>
      <circle id="Oval" fill="#000000" cx="25" cy="48" r="1"></circle>
      <circle id="Oval" fill="#000000" cx="21" cy="50" r="1"></circle>
      <circle id="Oval" fill="#000000" cx="16" cy="51" r="1"></circle>
      <circle id="Oval" fill="#000000" cx="11" cy="51" r="1"></circle>
      <circle id="Oval" fill="#000000" cx="6" cy="51" r="1"></circle>
      <path
        d="M7.47,31.69 C7.33889039,31.6902115 7.20904462,31.6643783 7.088,31.614 C4.80908495,30.6738679 3.55712173,28.2114749 4.14020693,25.8162059 C4.72329213,23.4209368 6.96695797,21.8094919 9.423,22.022 C10.0620645,22.0702271 10.6846629,22.2478208 11.253,22.544 C11.5791013,22.704083 11.7927391,23.0284232 11.8110609,23.3912357 C11.8293828,23.7540483 11.6495066,24.0982607 11.3411913,24.2903814 C11.0328761,24.4825022 10.6446218,24.4923095 10.327,24.316 C9.99935323,24.145398 9.64038958,24.0433231 9.272,24.016 C9.166,24.008 9.086,24 9,24 C7.5742518,24.0068847 6.35030701,25.0162932 6.07213746,26.4146591 C5.79396791,27.8130249 6.53842821,29.2139979 7.853,29.766 C8.29397715,29.9484958 8.54453963,30.4171699 8.45136471,30.885234 C8.35818979,31.3532981 7.94724781,31.6902902 7.47,31.69 Z"
        id="Shape"
        fill="#000000"
      ></path>
      <path
        d="M9.351,24.02 C8.96679553,24.0192798 8.61697595,23.7985048 8.451,23.452 C8.15763345,22.8428779 8.00357253,22.1760776 8,21.5 C8.05147464,19.0892091 9.99407728,17.1474599 12.4048906,17.0970447 C14.8157039,17.0466295 16.8377849,18.9054687 16.99,21.312 C17.0109868,21.8642847 16.5802847,22.3290132 16.028,22.35 C15.4757153,22.3709868 15.0109868,21.9402847 14.99,21.388 C14.8821536,20.0690881 13.7651986,19.0626784 12.442218,19.0923725 C11.1192374,19.1220667 10.0485619,20.1775775 10,21.5 C10.0020081,21.8768984 10.0881004,22.2485985 10.252,22.588 C10.3666048,22.8272206 10.3814702,23.1021736 10.293325,23.3523559 C10.2051798,23.6025382 10.0212467,23.8074497 9.782,23.922 C9.64756613,23.986763 9.50022011,24.0202663 9.351,24.02 Z"
        id="Shape"
        fill="#000000"
      ></path>
      <path
        d="M20.879,24.61 C20.4237538,24.6095506 20.0262666,24.3016728 19.912,23.861 C19.6249301,22.7642247 18.6337217,21.999449 17.5,22 C17.1316589,21.9970138 16.7678072,22.0809532 16.438,22.245 C16.0848915,22.4016201 15.7785461,22.6473168 15.549,22.958 C15.2242566,23.4047983 14.5987984,23.5037434 14.152,23.179 C13.7052017,22.8542565 13.6062566,22.2287984 13.931,21.782 C14.3549642,21.2026311 14.9197914,20.741063 15.572,20.441 C16.1716711,20.1461913 16.8317976,19.9951976 17.5,20 C19.5447902,19.9989677 21.3321357,21.3793509 21.848,23.358 C21.9260886,23.6578738 21.8607467,23.9770069 21.6710854,24.2220593 C21.4814242,24.4671118 21.1888741,24.6103945 20.879,24.61 Z"
        id="Shape"
        fill="#000000"
      ></path>
    </g>
  </g>
</svg>
