<svg>

    <symbol id="footpath">
      <g><path d="m484.297 504.5h-456.594c-11.158 0-20.203-9.045-20.203-20.203v-456.594c0-11.158 9.045-20.203 20.203-20.203h456.594c11.158 0 20.203 9.045 20.203 20.203v456.594c0 11.158-9.045 20.203-20.203 20.203z" fill="#bbec6c"></path><path d="m484.297 7.5h-40.407c11.158 0 20.203 9.045 20.203 20.203v456.594c0 11.158-9.045 20.203-20.203 20.203h40.406c11.158 0 20.203-9.045 20.203-20.203v-456.594c.001-11.158-9.044-20.203-20.202-20.203z" fill="#a2e62e"></path><path d="m356.486 504.5 19.874-41.987c41.297-87.247 21.552-191.177-48.865-257.2l-25.724-24.119c-35.935-33.692-45.398-87.022-23.25-131.021l21.481-42.673h-67.408l-51.734 61.618c-28.215 33.606-34.011 80.669-14.792 120.117l22.359 45.893c24.601 50.494 21.941 110.014-7.066 158.113l-67.096 111.259z" fill="#e8ad8c"></path><path d="m327.496 205.313-25.724-24.119c-35.935-33.692-45.398-87.022-23.25-131.021l21.479-42.673h-32.325l-21.48 42.673c-22.148 43.999-12.684 97.329 23.25 131.021l25.724 24.119c70.417 66.023 90.162 169.953 48.865 257.2l-19.874 41.987h32.325l19.874-41.987c41.298-87.248 21.553-191.177-48.864-257.2z" fill="#e19974"></path><g><path d="m395.115 74.644c.02-.325.049-.648.049-.979 0-8.926-7.236-16.163-16.163-16.163-1.89 0-3.696.341-5.382.937-4.444-5.499-11.241-9.019-18.862-9.019-13.39 0-24.244 10.854-24.244 24.244-8.926 0-16.163 7.236-16.163 16.163s7.236 16.163 16.163 16.163h59.106c8.926 0 16.163-7.236 16.163-16.163.001-6.993-4.45-12.932-10.667-15.183z" fill="#97d729"></path><path d="m395.115 74.644c.02-.325.049-.648.049-.979 0-8.926-7.236-16.163-16.163-16.163-.348 0-.69.024-1.032.046-.276 14.219-5.604 30.044-15.978 44.218-1.067 1.458-2.175 2.858-3.304 4.224h30.932c8.926 0 16.163-7.236 16.163-16.163.001-6.993-4.45-12.932-10.667-15.183z" fill="#8bc727"></path></g><g><path d="m160.145 390.467c.02-.325.049-.648.049-.979 0-8.926-7.236-16.163-16.163-16.163-1.89 0-3.696.341-5.382.937-4.444-5.499-11.241-9.019-18.862-9.019-13.39 0-24.244 10.854-24.244 24.244-8.926 0-16.163 7.236-16.163 16.163 0 8.926 7.236 16.163 16.163 16.163h59.106c8.926 0 16.163-7.236 16.163-16.163.001-6.993-4.45-12.932-10.667-15.183z" fill="#97d729"></path><path d="m160.145 390.467c.02-.325.049-.648.049-.979 0-8.926-7.236-16.163-16.163-16.163-.348 0-.69.024-1.032.046-.276 14.219-5.604 30.044-15.978 44.218-1.067 1.458-2.175 2.858-3.304 4.224h30.932c8.926 0 16.163-7.236 16.163-16.163.001-6.993-4.45-12.932-10.667-15.183z" fill="#8bc727"></path></g><g><path d="m130.013 252.938c.02-.325.049-.648.049-.979 0-8.926-7.236-16.163-16.163-16.163-1.89 0-3.696.341-5.382.937-4.444-5.499-11.241-9.019-18.862-9.019-13.39 0-24.244 10.854-24.244 24.244-8.926 0-16.163 7.236-16.163 16.163s7.236 16.163 16.163 16.163h59.106s16.163-7.236 16.163-16.163c.001-6.993-4.45-12.932-10.667-15.183z" fill="#97d729"></path><path d="m130.013 252.938c.02-.325.049-.648.049-.979 0-8.926-7.236-16.163-16.163-16.163-.348 0-.69.024-1.032.046-.276 14.219-5.604 30.044-15.978 44.218-1.067 1.458-2.175 2.858-3.304 4.224h30.932c8.926 0 16.163-7.236 16.163-16.163.001-6.993-4.45-12.932-10.667-15.183z" fill="#8bc727"></path></g><g><path d="m461.83 166.49c.02-.325.049-.648.049-.979 0-8.926-7.236-16.163-16.163-16.163-1.89 0-3.696.341-5.382.937-4.444-5.499-11.241-9.019-18.862-9.019-13.39 0-24.244 10.854-24.244 24.244-8.926 0-16.163 7.236-16.163 16.163 0 8.926 7.236 16.163 16.163 16.163h59.106c8.926 0 16.163-7.236 16.163-16.163.001-6.993-4.45-12.932-10.667-15.183z" fill="#97d729"></path><path d="m461.83 166.49c.02-.325.049-.648.049-.979 0-8.926-7.236-16.163-16.163-16.163-.348 0-.69.024-1.032.046-.276 14.219-5.604 30.044-15.978 44.218-1.067 1.458-2.175 2.858-3.304 4.224h30.932c8.926 0 16.163-7.236 16.163-16.163.001-6.993-4.45-12.932-10.667-15.183z" fill="#8bc727"></path></g><path d="m206.301 194.823 4.12-7.199c1.463-2.556 4.183-4.134 7.128-4.134h4.219c2.879 0 5.548-1.508 7.035-3.974l3.879-6.437c1.486-2.466 4.155-3.974 7.035-3.974h5.235c3.68 0 6.912 2.448 7.907 5.992l6.811 24.241c.969 3.448-.408 7.126-3.403 9.09l-4.286 2.811c-1.713 1.123-3.784 1.566-5.806 1.241l-34.048-5.468c-5.668-.91-8.677-7.207-5.826-12.189z" fill="#9c9c9c"></path><path d="m278.124 385.265 4.832-7.995c1.539-2.546 3.934-4.46 6.757-5.399l15.788-5.252c2.676-.89 4.973-2.659 6.518-5.018l7.563-11.554c2.311-3.53 6.246-5.658 10.466-5.658h8.578c5.493 0 10.343 3.583 11.957 8.833l10.709 34.837c2.473 8.043-3.542 16.184-11.957 16.184h-60.505c-9.742.001-15.745-10.641-10.706-18.978z" fill="#bfbfbf"></path><g><path d="m484.3 0h-335.03c-4.143 0-7.5 3.358-7.5 7.5s3.357 7.5 7.5 7.5h67.232l-41.385 49.297c-30.086 35.835-36.283 86.164-15.788 128.217l14.56 29.89c1.299 2.667 3.969 4.217 6.748 4.217 1.102 0 2.221-.244 3.278-.759 3.724-1.814 5.272-6.303 3.458-10.027l-14.56-29.892c-17.903-36.736-12.489-80.699 13.792-112.002l49.481-58.941h51.744l-16.008 31.801c-11.601 23.045-15.349 48.654-10.841 74.058s16.839 48.159 35.66 65.806l25.725 24.119c33.385 31.301 55.545 71.611 64.087 116.57s2.707 90.587-16.872 131.951l-17.843 37.695h-224.187l60.233-99.886c27.184-45.075 32.437-99.282 14.413-148.723-1.419-3.891-5.722-5.898-9.614-4.478-3.892 1.418-5.896 5.724-4.479 9.615 16.462 45.157 11.663 94.668-13.166 135.838l-1.319 2.188c-1.695-2.278-3.793-4.261-6.221-5.818-1.804-11.271-11.595-19.911-23.365-19.911-.965 0-1.928.06-2.886.18-5.806-5.297-13.364-8.261-21.358-8.261-15.278 0-28.07 10.85-31.076 25.249-9.727 2.939-16.83 11.984-16.83 22.657 0 13.047 10.615 23.663 23.662 23.663h55.306l-40.817 67.687h-82.334c-7.003 0-12.7-5.697-12.7-12.7v-456.6c0-7.003 5.697-12.7 12.7-12.7h86.569c4.143 0 7.5-3.358 7.5-7.5s-3.357-7.5-7.5-7.5h-86.569c-15.274 0-27.7 12.426-27.7 27.7v456.6c0 15.274 12.426 27.7 27.7 27.7h390.06c4.143 0 7.5-3.358 7.5-7.5s-3.357-7.5-7.5-7.5h-49.425l14.805-31.279c20.946-44.253 27.188-93.068 18.05-141.167-9.138-48.1-32.847-91.225-68.563-124.712l-25.725-24.119c-16.441-15.416-27.213-35.293-31.151-57.485-3.938-22.191-.663-44.562 9.471-64.693l19.401-38.545h179.677c7.003 0 12.7 5.697 12.7 12.7v456.6c0 7.003-5.697 12.7-12.7 12.7h-31.54c-4.143 0-7.5 3.358-7.5 7.5s3.357 7.5 7.5 7.5h31.54c15.274 0 27.7-12.426 27.7-27.7v-456.6c0-15.274-12.426-27.7-27.7-27.7zm-397.418 405.651c0-4.776 3.886-8.663 8.662-8.663 4.143 0 7.5-3.358 7.5-7.5 0-9.232 7.512-16.744 16.744-16.744 5.078 0 9.827 2.272 13.028 6.233 1.998 2.472 5.336 3.414 8.333 2.357.954-.337 1.925-.509 2.883-.509 4.776 0 8.662 3.886 8.663 8.621l-.037.572c-.199 3.317 1.809 6.37 4.934 7.501 3.422 1.239 5.721 4.506 5.721 8.131 0 4.776-3.886 8.663-8.662 8.663h-59.107c-4.776 0-8.662-3.886-8.662-8.662z"></path><path d="m413.283 89.828c0-8.145-4.231-15.626-10.916-19.915-1.804-11.271-11.595-19.911-23.365-19.911-.965 0-1.927.06-2.885.18-5.806-5.297-13.365-8.261-21.359-8.261-15.278 0-28.07 10.85-31.076 25.249-9.727 2.939-16.83 11.984-16.83 22.657 0 13.047 10.615 23.663 23.662 23.663h59.106c13.048.001 23.663-10.615 23.663-23.662zm-91.431 0c0-4.776 3.886-8.663 8.662-8.663 4.143 0 7.5-3.358 7.5-7.5 0-9.232 7.512-16.744 16.744-16.744 5.079 0 9.828 2.272 13.029 6.233 1.998 2.472 5.336 3.415 8.334 2.356.953-.337 1.923-.508 2.881-.508 4.776 0 8.662 3.886 8.662 8.628l-.035.564c-.199 3.317 1.809 6.37 4.933 7.501 3.423 1.239 5.722 4.507 5.722 8.132 0 4.776-3.887 8.663-8.663 8.663h-59.106c-4.778.001-8.663-3.886-8.663-8.662z"></path><path d="m111.016 228.477c-5.806-5.297-13.365-8.261-21.359-8.261-15.278 0-28.07 10.85-31.076 25.25-9.729 2.938-16.831 11.983-16.831 22.657 0 13.047 10.615 23.663 23.663 23.663h59.105c13.048 0 23.663-10.615 23.663-23.663 0-8.144-4.231-15.626-10.915-19.915-1.804-11.271-11.595-19.911-23.366-19.911-.964 0-1.927.06-2.884.18zm11.547 23.44-.037.572c-.199 3.317 1.809 6.369 4.933 7.5 3.423 1.239 5.722 4.507 5.722 8.132 0 4.776-3.887 8.663-8.663 8.663h-59.106c-4.776 0-8.663-3.886-8.663-8.663s3.887-8.663 8.663-8.663c4.143 0 7.5-3.358 7.5-7.5 0-9.233 7.512-16.744 16.744-16.744 5.078 0 9.827 2.272 13.028 6.233 1.999 2.472 5.337 3.416 8.331 2.357.956-.337 1.926-.509 2.884-.509 4.777.002 8.663 3.888 8.664 8.622z"></path><path d="m397.229 205.336h59.106c13.047 0 23.662-10.615 23.662-23.663 0-8.144-4.231-15.625-10.915-19.914-1.804-11.271-11.595-19.911-23.366-19.911-.965 0-1.927.06-2.885.18-5.806-5.297-13.364-8.261-21.358-8.261-15.278 0-28.07 10.85-31.076 25.249-9.729 2.938-16.831 11.983-16.831 22.657 0 13.048 10.616 23.663 23.663 23.663zm0-32.325c4.143 0 7.5-3.358 7.5-7.5 0-9.232 7.512-16.744 16.744-16.744 5.078 0 9.827 2.272 13.028 6.233 1.998 2.472 5.335 3.414 8.333 2.357.954-.337 1.924-.509 2.882-.509 4.776 0 8.663 3.886 8.664 8.621l-.037.572c-.199 3.317 1.809 6.369 4.933 7.5 3.423 1.239 5.722 4.507 5.722 8.132 0 4.776-3.886 8.663-8.662 8.663h-59.106c-4.776 0-8.663-3.886-8.663-8.663s3.886-8.662 8.662-8.662z"></path><path d="m436.566 272.128c2.796 2.899 7.812 2.898 10.607 0l13.226-13.226c2.929-2.929 2.929-7.678 0-10.606-2.93-2.929-7.678-2.929-10.607 0l-.422.422v-3.542c0-4.142-3.357-7.5-7.5-7.5s-7.5 3.358-7.5 7.5v3.542l-.422-.422c-2.93-2.929-7.678-2.929-10.607 0s-2.929 7.678 0 10.606z"></path><path d="m38.458 182.822 13.226 13.226c2.796 2.899 7.812 2.898 10.607 0l13.226-13.226c2.929-2.929 2.929-7.678 0-10.606-2.93-2.929-7.678-2.929-10.607 0l-.422.422v-3.543c0-4.142-3.357-7.5-7.5-7.5s-7.5 3.358-7.5 7.5v3.543l-.422-.422c-2.93-2.929-7.678-2.929-10.607 0-2.93 2.929-2.93 7.678-.001 10.606z"></path><path d="m110.14 113.152-.422.422v-3.543c0-4.142-3.357-7.5-7.5-7.5s-7.5 3.358-7.5 7.5v3.543l-.422-.422c-2.93-2.929-7.678-2.929-10.607 0s-2.929 7.678 0 10.606l13.226 13.226c2.796 2.899 7.812 2.898 10.607 0l13.226-13.226c2.929-2.929 2.929-7.678 0-10.606-2.931-2.928-7.679-2.928-10.608 0z"></path><path d="m63.601 41.922c-4.143 0-7.5 3.358-7.5 7.5v3.542l-.422-.422c-2.93-2.929-7.678-2.929-10.607 0s-2.929 7.678 0 10.606l13.226 13.226c2.796 2.899 7.812 2.898 10.607 0l13.225-13.225c2.929-2.929 2.929-7.678 0-10.606-2.93-2.929-7.678-2.929-10.607 0l-.422.422v-3.542c0-4.143-3.358-7.501-7.5-7.501z"></path><path d="m449.822 362.062c2.797 2.876 7.793 2.858 10.577-.027l13.226-13.226c2.929-2.929 2.929-7.678 0-10.606-2.93-2.929-7.678-2.929-10.607 0l-.422.422v-3.543c0-4.142-3.357-7.5-7.5-7.5s-7.5 3.358-7.5 7.5v3.543l-.422-.422c-2.93-2.929-7.678-2.929-10.607 0s-2.929 7.678 0 10.606l13.226 13.226c.009.009.019.017.029.027z"></path><path d="m63.601 319.518c-4.143 0-7.5 3.358-7.5 7.5v3.543l-.422-.422c-2.93-2.929-7.678-2.929-10.607 0s-2.929 7.678 0 10.606l13.226 13.226c2.796 2.899 7.812 2.898 10.607 0l13.226-13.226c2.929-2.929 2.929-7.678 0-10.606-2.93-2.929-7.678-2.929-10.607 0l-.422.422v-3.543c-.001-4.143-3.359-7.5-7.501-7.5z"></path><path d="m210.938 214.417 34.049 5.468c.833.134 1.669.2 2.501.2 3.04 0 6.026-.883 8.605-2.574l4.288-2.812c5.756-3.775 8.371-10.764 6.51-17.39l-6.811-24.24c-1.896-6.75-8.116-11.464-15.128-11.464h-5.235c-5.475 0-10.632 2.913-13.458 7.603l-3.879 6.437c-.128.213-.362.345-.611.345h-4.219c-5.621 0-10.848 3.031-13.639 7.908l-4.119 7.199c-.001 0-.001 0-.001 0-2.562 4.477-2.763 9.928-.539 14.582 2.225 4.654 6.594 7.92 11.686 8.738zm1.873-15.869 4.12-7.199c.127-.221.363-.358.619-.358h4.219c5.476 0 10.633-2.913 13.459-7.603l3.879-6.437c.128-.213.362-.345.61-.345h5.235c.318 0 .601.214.687.521l6.811 24.241c.085.301-.034.618-.294.789l-4.287 2.811c-.148.097-.328.139-.504.108l-34.048-5.468c-.102-.016-.369-.059-.53-.396-.163-.339-.027-.575.024-.664z"></path><path d="m288.829 411.745h60.508c6.415 0 12.281-2.959 16.093-8.12 3.812-5.16 4.917-11.637 3.032-17.769l-10.709-34.838c-2.599-8.451-10.284-14.129-19.126-14.129h-8.578c-6.773 0-13.032 3.383-16.741 9.05l-7.562 11.554c-.616.941-1.544 1.655-2.61 2.01l-15.788 5.252c-4.512 1.5-8.351 4.568-10.808 8.636l-4.833 7.995c-.001 0-.001 0-.001 0-3.785 6.263-3.898 13.807-.304 20.18s10.11 10.179 17.427 10.179zm-4.287-22.6 4.834-7.997c.615-1.018 1.576-1.785 2.705-2.161l15.788-5.252c4.262-1.418 7.964-4.268 10.426-8.027l7.563-11.555c.929-1.418 2.495-2.265 4.19-2.265h8.578c2.214 0 4.138 1.421 4.788 3.537l10.709 34.838c.472 1.535.195 3.156-.759 4.448s-2.423 2.033-4.028 2.033h-60.508c-2.641 0-3.931-1.782-4.362-2.548-.432-.766-1.289-2.792.076-5.051z"></path></g></g>
    </symbol>

    <symbol id="house">
        <rect x="348.1" y="319.13" style="fill:#FFD467;" width="110" height="124"></rect><rect x="428.1" y="319.13" style="fill:#FFB06A;" width="30" height="124"></rect><rect x="198.1" y="319.13" style="fill:#FFE9B5;" width="150" height="124"></rect><rect x="313.5" y="125.06" style="fill:#BE6454;" width="72" height="30"></rect><rect x="355.5" y="125.06" style="fill:#A35D54;" width="30" height="30"></rect><rect x="7.5" y="443" style="fill:#BE6454;" width="497" height="30"></rect><ellipse style="fill:#FFD65C;" cx="189" cy="109" rx="32" ry="31.906"></ellipse><path style="fill:#B3E671;" d="M103.5,338.13h-52c-24.2,0-44-19.8-44-44v-52c0-24.2,19.8-44,44-44h52c24.2,0,44,19.8,44,44v52 C147.5,318.33,127.7,338.13,103.5,338.13z"></path><path style="fill:#8BD767;" d="M103.5,198.13H75c24.2,0,44,19.8,44,44v52c0,24.2-19.8,44-44,44h28.5c24.2,0,44-19.8,44-44v-52 C147.5,217.93,127.7,198.13,103.5,198.13z"></path><rect x="62.5" y="338.13" style="fill:#A35D54;" width="30" height="105"></rect><polygon style="fill:#DE4747;" points="472.445,319.13 404.367,205.062 254.018,205.062 185.939,319.13 "></polygon><polygon style="fill:#C43F3F;" points="404.367,205.062 346.321,319.13 472.445,319.13 "></polygon><rect x="270.47" y="238.9" style="fill:#9FDBF5;" width="35" height="41"></rect><g><polygon style="fill:#BE6454;" points="305.469,279.895 329.192,238.895 305.469,238.895 "></polygon><rect x="229.72" y="351.7" style="fill:#BE6454;" width="85.33" height="91.43"></rect></g><rect x="348.1" y="352.46" style="fill:#9FDBF5;" width="110.05" height="45.716"></rect><rect x="428.15" y="352.46" style="fill:#82D2F5;" width="30" height="45.716"></rect><rect x="324.5" y="155.06" style="fill:#CD795E;" width="50" height="50"></rect><rect x="344.5" y="155.06" style="fill:#BE6454;" width="30" height="50"></rect><path d="M504.5,435.5h-38.896v-36.491c0.03-0.273,0.048-0.549,0.048-0.83v-45.715c0-0.281-0.018-0.557-0.048-0.83V326.63h6.841 c0.337,0,0.671-0.022,1-0.067c2.303-0.31,4.356-1.677,5.522-3.73c0.5-0.88,0.808-1.836,0.924-2.809 c0.195-1.621-0.142-3.29-1.006-4.738l-68.079-114.067c-0.173-0.289-0.364-0.563-0.57-0.823c-0.052-0.065-0.112-0.121-0.166-0.184 c-0.161-0.189-0.324-0.377-0.502-0.548c-0.067-0.064-0.141-0.118-0.21-0.18c-0.176-0.157-0.353-0.313-0.542-0.454 c-0.08-0.059-0.166-0.106-0.247-0.162c-0.188-0.127-0.376-0.254-0.574-0.364c-0.098-0.054-0.202-0.097-0.302-0.147 c-0.189-0.094-0.378-0.188-0.575-0.266c-0.122-0.048-0.248-0.083-0.373-0.125c-0.182-0.061-0.362-0.124-0.549-0.171 c-0.145-0.037-0.294-0.06-0.442-0.087c-0.172-0.033-0.343-0.068-0.518-0.088c-0.16-0.019-0.321-0.023-0.483-0.032 c-0.129-0.007-0.257-0.025-0.387-0.025h-22.371v-35h3.5c4.142,0,7.5-3.357,7.5-7.5v-30c0-4.143-3.358-7.5-7.5-7.5h-72 c-4.142,0-7.5,3.357-7.5,7.5v30c0,4.143,3.358,7.5,7.5,7.5h3.5v35h-8.746c-4.142,0-7.5,3.357-7.5,7.5s3.358,7.5,7.5,7.5h16.246h50 h17.639l-50.412,99.067H199.15l59.126-99.067h17.849c4.142,0,7.5-3.357,7.5-7.5s-3.358-7.5-7.5-7.5h-22.107 c-2.641,0-5.087,1.389-6.44,3.656L179.5,315.286c-1.383,2.317-1.415,5.199-0.082,7.547c1.332,2.347,3.823,3.797,6.522,3.797h4.665 V435.5H100v-89.87h3.5c28.397,0,51.5-23.103,51.5-51.5v-52c0-28.397-23.103-51.5-51.5-51.5H47.962 C21.516,190.63,0,212.146,0,238.592v55.538c0,28.397,23.103,51.5,51.5,51.5H55V359c0,4.143,3.358,7.5,7.5,7.5s7.5-3.357,7.5-7.5 v-13.37h15v89.87H70v-44.87c0-4.143-3.358-7.5-7.5-7.5s-7.5,3.357-7.5,7.5v44.87H7.5c-4.142,0-7.5,3.357-7.5,7.5v30 c0,4.143,3.358,7.5,7.5,7.5h497c4.142,0,7.5-3.357,7.5-7.5v-30C512,438.857,508.642,435.5,504.5,435.5z M51.5,330.63L51.5,330.63 c-20.126,0-36.5-16.374-36.5-36.5v-55.538c0-18.175,14.787-32.962,32.962-32.962H103.5c20.126,0,36.5,16.374,36.5,36.5v52 c0,20.126-16.374,36.5-36.5,36.5l0,0H51.5z M307.556,435.5h-70.333v-76.302h70.333V435.5z M355.604,435.5v-29.821H407.5 c4.142,0,7.5-3.357,7.5-7.5s-3.358-7.5-7.5-7.5h-51.896v-30.715h95v30.715h-10.771c-4.142,0-7.5,3.357-7.5,7.5s3.358,7.5,7.5,7.5 h10.771V435.5H355.604z M450.604,344.964h-95V326.63h95V344.964z M320.996,132.563h57v15l0,0h-57l0,0V132.563z M331.996,197.563v-35 h35v35H331.996z M404.889,220.572l54.346,91.058h-1.131h-99.551L404.889,220.572z M205.604,326.63h135l0,0V435.5l0,0h-18.048 v-83.802c0-4.143-3.358-7.5-7.5-7.5h-85.333c-4.142,0-7.5,3.357-7.5,7.5V435.5h-16.619L205.604,326.63L205.604,326.63z M497,450.5 v15H15v-15H497"></path><path d="M189,148.406c21.78,0,39.5-17.678,39.5-39.406S210.78,69.594,189,69.594S149.5,87.271,149.5,109S167.22,148.406,189,148.406 z M189,84.594c13.509,0,24.5,10.948,24.5,24.406s-10.991,24.406-24.5,24.406S164.5,122.458,164.5,109S175.491,84.594,189,84.594z"></path><path d="M262.969,238.895v41c0,4.143,3.358,7.5,7.5,7.5h34.986c0.005,0,0.01,0.001,0.015,0.001c0.022,0,0.044-0.004,0.066-0.004 c0.279-0.002,0.553-0.022,0.823-0.054c0.086-0.01,0.17-0.025,0.256-0.039c0.221-0.034,0.439-0.077,0.653-0.129 c0.077-0.019,0.154-0.038,0.231-0.059c0.26-0.073,0.515-0.158,0.762-0.257c0.024-0.009,0.048-0.017,0.072-0.026 c0.278-0.115,0.546-0.248,0.806-0.394c0.056-0.032,0.109-0.067,0.165-0.1c0.198-0.118,0.39-0.245,0.575-0.38 c0.071-0.052,0.142-0.104,0.212-0.158c0.196-0.154,0.385-0.317,0.565-0.49c0.033-0.032,0.069-0.06,0.102-0.092 c0.208-0.207,0.4-0.428,0.582-0.657c0.048-0.061,0.093-0.124,0.14-0.187c0.147-0.197,0.284-0.401,0.412-0.613 c0.022-0.036,0.049-0.068,0.07-0.104l23.724-41c1.342-2.32,1.345-5.181,0.005-7.503s-3.816-3.753-6.497-3.753H305.47h-35 C266.327,231.395,262.969,234.752,262.969,238.895z M312.969,251.958v-5.563h3.219L312.969,251.958z M277.969,246.395h20v26h-20 V246.395z"></path><path d="M189,62.5c4.142,0,7.5-3.357,7.5-7.5V39c0-4.143-3.358-7.5-7.5-7.5s-7.5,3.357-7.5,7.5v16 C181.5,59.143,184.858,62.5,189,62.5z"></path><path d="M181.5,163v16c0,4.143,3.358,7.5,7.5,7.5s7.5-3.357,7.5-7.5v-16c0-4.143-3.358-7.5-7.5-7.5S181.5,158.857,181.5,163z"></path><path d="M227.184,78.316c1.919,0,3.839-0.732,5.303-2.196l11.314-11.313c2.929-2.929,2.929-7.678,0-10.606 c-2.929-2.93-7.678-2.929-10.606-0.001L221.88,65.513c-2.929,2.929-2.929,7.678,0,10.606 C223.345,77.584,225.264,78.316,227.184,78.316z"></path><path d="M145.513,141.88l-11.314,11.313c-2.929,2.929-2.929,7.678,0,10.606c1.464,1.465,3.384,2.197,5.303,2.197 s3.839-0.732,5.303-2.196l11.314-11.313c2.929-2.929,2.929-7.678,0-10.606C153.191,138.951,148.442,138.952,145.513,141.88z"></path><path d="M235.5,109c0,4.143,3.358,7.5,7.5,7.5h16c4.142,0,7.5-3.357,7.5-7.5s-3.358-7.5-7.5-7.5h-16 C238.858,101.5,235.5,104.857,235.5,109z"></path><path d="M119,116.5h16c4.142,0,7.5-3.357,7.5-7.5s-3.358-7.5-7.5-7.5h-16c-4.142,0-7.5,3.357-7.5,7.5S114.858,116.5,119,116.5z"></path><path d="M221.88,141.881c-2.929,2.929-2.929,7.678,0,10.606l11.314,11.313c1.464,1.464,3.384,2.196,5.303,2.196 s3.839-0.732,5.303-2.197c2.929-2.929,2.929-7.678,0-10.606l-11.314-11.313C229.558,138.952,224.809,138.951,221.88,141.881z"></path><path d="M145.513,76.12c1.464,1.464,3.384,2.196,5.303,2.196s3.839-0.732,5.303-2.197c2.929-2.929,2.929-7.678,0-10.606 L144.805,54.2c-2.929-2.928-7.678-2.929-10.606,0.001c-2.929,2.929-2.929,7.678,0,10.606L145.513,76.12z"></path>
    </symbol>

    <symbol id="trees">
        <g id="Page-1" fill="none" fill-rule="evenodd"><g id="003---Jungle-Trees" fill-rule="nonzero"><g id="Icons" transform="translate(0 1)"><path id="Shape" d="m48 17c-.0008456 1.7976545-.8076706 3.500217-2.1984606 4.6391927-1.39079 1.1389756-3.2189922 1.5943463-4.9815394 1.2408073.4752183 1.6059256-.104922 3.3375831-1.4516796 4.3331099-1.3467575.9955268-3.1724132 1.04224-4.5683204.1168901-.4339427 1.5935637-1.6305803 2.8678055-3.1937721 3.400894-1.5631917.5330884-3.2890461.2554914-4.6062279-.740894-.8714565-.6690696-1.5029303-1.6022476-1.8-2.66-1.3959072.9253499-3.2215629.8786367-4.5683204-.1168901-1.3467576-.9955268-1.9268979-2.7271843-1.4516796-4.3331099-3.139089.5880774-6.1886997-1.3858755-6.93755-4.4905394-.7488503-3.104664 1.0655397-6.2518222 4.12755-7.1594606-.868962-2.5999846-.1416811-5.46792807 1.8612542-7.33962917 2.0029353-1.87170109 4.9135158-2.40326291 7.4487458-1.36037083.8772383-1.56155584 2.5289099-2.52814504 4.32-2.52814504s3.4427617.9665892 4.32 2.52814504c2.53523-1.04289208 5.4458105-.51133026 7.4487458 1.36037083 2.0029353 1.8717011 2.7302162 4.73964457 1.8612542 7.33962917 2.5833805.7292434 4.3680544 3.0856664 4.37 5.77z" fill="#a4c400"></path><path id="Shape" d="m43.63 11.23c.7954254-2.3844281.2525207-5.01224723-1.422691-6.88624429-1.6752116-1.87399705-4.2259714-2.7069456-6.684309-2.18275571 1.9344778.43720173 3.5935494 1.67271301 4.5666917 3.4008171.9731423 1.7281041 1.1694355 3.78734565.5403083 5.6681829 3.0620103.9076384 4.8764003 4.0547966 4.12755 7.1594606-.7488503 3.1046639-3.798461 5.0786168-6.93755 4.4905394.6094055 1.9683754-.406639 4.0729455-2.327 4.82 1.418597.5806483 3.0445277.2957124 4.1811411-.7327232 1.1366134-1.0284357 1.5822064-2.6178651 1.1458589-4.0872768 3.139089.5880774 6.1886997-1.3858755 6.93755-4.4905394.7488503-3.104664-1.0655397-6.2518222-4.12755-7.1594606z" fill="#90ac00"></path><path id="Shape" d="m59 56c-.0032948 1.1032019-.8967981 1.9967052-2 2h-54c-.53059053.0028231-1.0395388-.2101411-1.41-.59-.3798589-.3704612-.59282307-.8794095-.59-1.41.0032948-1.1032019.89679813-1.9967052 2-2h54c1.1011688.0081672 1.9918328.8988312 2 2z" fill="#60a917"></path><path id="Shape" d="m58.41 54.59c-.3704612-.3798589-.8794095-.5928231-1.41-.59h-3c1.1011688.0081672 1.9918328.8988312 2 2-.0032948 1.1032019-.8967981 1.9967052-2 2h3c1.1032019-.0032948 1.9967052-.8967981 2-2 .0028231-.5305905-.2101411-1.0395388-.59-1.41z" fill="#549414"></path><path id="Shape" d="m22 53c.0030533.3377372-.0406959.6742693-.13 1h-18.87c-1.10320187.0032948-1.9967052.8967981-2 2v-13c-.00314196-1.9603043 1.41785776-3.6326688 3.35295102-3.9460644 1.93509325-.3133955 3.8113018.8249738 4.42704898 2.6860644 2.1410111-2.100971 5.5046672-2.2979389 7.8762606-.4612156 2.3715933 1.8367234 3.0223254 5.1427069 1.5237394 7.7412156 2.1340006.0889488 3.8186379 1.8441469 3.82 3.98z" fill="#a4c400"></path><path id="Shape" d="m59 43v13c-.0081672-1.1011688-.8988312-1.9918328-2-2h-18.87c-.0893041-.3257307-.1330533-.6622628-.13-1 .0013621-2.1358531 1.6859994-3.8910512 3.82-3.98-1.498586-2.5985087-.8478539-5.9044922 1.5237394-7.7412156 2.3715934-1.8367233 5.7352495-1.6397554 7.8762606.4612156.6157472-1.8610906 2.4919557-2.9994599 4.427049-2.6860644 1.9350932.3133956 3.356093 1.9857601 3.352951 3.9460644z" fill="#a4c400"></path><path id="Shape" d="m55 39c-.5107775.0024021-1.0161938.1043005-1.488.3 1.5035563.613891 2.4866915 2.0759488 2.488 3.7v11h1c1.1011688.0081672 1.9918328.8988312 2 2v-13c0-2.209139-1.790861-4-4-4z" fill="#90ac00"></path><path id="Shape" d="m20.72 27.29c-.2549338-.0874655-.4970673-.2085322-.72-.36-.4029915 1.4475978-1.5458342 2.5713931-3 2.95-2.1880728.5165395-4.3940449-.7849841-5-2.95-.5414486.3618403-1.1787831.5533889-1.83.55-1.84670532-.0044124-3.34110844-1.5032897-3.34-3.35.00350692-.3190045.05405093-.6357469.15-.94-.3220554.0688896-.65066796.1024215-.98.1-2.50252306-.0151893-4.61373807-1.8667503-4.95534262-4.345895-.34160454-2.4791448 1.19018486-4.83268 3.59534262-5.524105-.60526585-1.7854696-.31438916-3.75311294.78159006-5.28708747 1.09597921-1.53397452 2.86314827-2.44685087 4.74840994-2.45291253.764801.0009951 1.5221385.15042493 2.23.44.7278921-1.30611144 2.1047593-2.11693326 3.6-2.12.6018231-.00135522 1.1963314.13189665 1.74.39-1.6497331 1.86959245-2.1724293 4.47925806-1.37 6.84-2.8752692.8198519-4.7081654 3.6314842-4.2980194 6.5930902.4101459 2.961606 2.9381578 5.1693062 5.9280194 5.1769098.3964144.0007045.7918429-.0395086 1.18-.12-.1156995.3622245-.1763754.7397635-.18 1.12.0011037 1.311883.6433676 2.5403995 1.72 3.29z" fill="#60a917"></path><path id="Shape" d="m59 18.26c.0039842 1.3300625-.5205631 2.6072312-1.4582463 3.5505405-.9376832.9433092-2.2116912 1.4754872-3.5417537 1.4794595-.329332.0024215-.6579446-.0311104-.98-.1.0959491.3042531.1464931.6209955.15.94.0011084 1.8467103-1.4932947 3.3455876-3.34 3.35-.6512169.0033889-1.2885514-.1881597-1.83-.55-.5880287 2.1787289-2.8085928 3.4888617-5 2.95-1.4541658-.3786069-2.5970085-1.5024022-3-2.95-.2229327.1514678-.4650662.2725345-.72.36 1.0766324-.7496005 1.7188963-1.978117 1.72-3.29-.0036246-.3802365-.0643005-.7577755-.18-1.12.3881571.0804914.7835856.1207045 1.18.12 2.9898616-.0076036 5.5178735-2.2153038 5.9280194-5.1769098.410146-2.961606-1.4227502-5.7732383-4.2980194-6.5930902.8024293-2.36074194.2797331-4.97040755-1.37-6.84.5436686-.25810335 1.1381769-.39135522 1.74-.39 1.4952407.00306674 2.8721079.81388856 3.6 2.12 1.8071785-.74396465 3.8666045-.5355104 5.4880479.55549792 1.6214433 1.09100833 2.5903378 2.92019727 2.5819521 4.87450208-.000468.6360841-.1051895 1.2677909-.31 1.87 2.1586241.6185824 3.6446431 2.5944977 3.64 4.84z" fill="#60a917"></path><path id="Shape" d="m55.36 13.42c.7084876-2.0415301.2294045-4.30748508-1.2447822-5.88753988s-3.7015305-2.21488743-5.7872178-1.64946012c1.5644475.41870143 2.8856471 1.46658833 3.6495775 2.89459999.7639303 1.42801161.9023728 3.10862731.3824225 4.64240001 2.4051578.691425 3.9369472 3.0449602 3.5953426 5.524105-.3416045 2.4791447-2.4528195 4.3307057-4.9553426 4.345895-.329332.0024215-.6579446-.0311104-.98-.1.0959491.3042531.1464931.6209955.15.94-.0032045 1.2638463-.7190871 2.4177716-1.85 2.982.4665552.2419408.984444.3681548 1.51.368 1.8467053-.0044124 3.3411084-1.5032897 3.34-3.35-.0035069-.3190045-.0540509-.6357469-.15-.94.3220554.0688896.650668.1024215.98.1 2.5025231-.0151893 4.6137381-1.8667503 4.9553426-4.345895.3416046-2.4791448-1.1901848-4.83268-3.5953426-5.524105z" fill="#549414"></path><g fill="#91562d"><path id="Shape" d="m17 29.88v11.66c-1.0947415-.9940165-2.5213123-1.5432462-4-1.54v-11.31c1.0189596 1.0925589 2.5495279 1.547903 4 1.19z"></path><path id="Shape" d="m47 28.69v11.31c-1.4786877-.0032462-2.9052585.5459835-4 1.54v-11.66c1.4504721.357903 2.9810404-.0974411 4-1.19z"></path><path id="Shape" d="m37 54h-14c4 0 4-3 4-7v-17.01c1.77326 1.3468186 4.22674 1.3468186 6 0v17.01c0 4 0 7 4 7z"></path></g><path id="Shape" d="m33 47v-17.01c-.8624612.6560195-1.9163948 1.0108438-3 1.01v16c0 4 0 7 4 7h3c-4 0-4-3-4-7z" fill="#783e22"></path><path id="Shape" d="m27 33.54v13.46c0 4 0 7-4 7h-1.13c.0893041-.3257307.1330533-.6622628.13-1-.0013621-2.1358531-1.6859994-3.8910512-3.82-3.98 1.439772-2.4558839.9458869-5.5866131-1.18-7.48v-6c.6074777-.3529906 1.2974112-.5392727 2-.54.7994497-.003067 1.5808413.2376295 2.24.69.3846561-1.1273515 1.2548392-2.0226331 2.3708004-2.4391812 1.1159612-.416548 2.3599395-.3104064 3.3891996.2891812z" fill="#008a00"></path><path id="Shape" d="m43 35.54v6c-2.1258869 1.8933869-2.619772 5.0241161-1.18 7.48-2.1340006.0889488-3.8186379 1.8441469-3.82 3.98-.0030533.3377372.0406959.6742693.13 1h-1.13c-4 0-4-3-4-7v-13.46c1.0292601-.5995876 2.2732384-.7057292 3.3891996-.2891812 1.1159612.4165481 1.9861443 1.3118297 2.3708004 2.4391812.6591587-.4523705 1.4405503-.693067 2.24-.69.7025888.0007273 1.3925223.1870094 2 .54z" fill="#008a00"></path><path id="Shape" d="m41 35c-.5127384.0022103-1.0201549.1041011-1.494.3.1698458.0688688.3348826.1490486.494.24v6c-2.1258869 1.8933869-2.619772 5.0241161-1.18 7.48-2.1340006.0889488-3.8186379 1.8441469-3.82 3.98.0014763.2193042.0215482.4380881.06.654.6159857.2475386 1.2764186.3653271 1.94.346h1.13c-.0893041-.3257307-.1330533-.6622628-.13-1 .0013621-2.1358531 1.6859994-3.8910512 3.82-3.98-1.439772-2.4558839-.9458869-5.5866131 1.18-7.48v-6c-.6074777-.3529906-1.2974112-.5392727-2-.54z" fill="#007900"></path></g><g id="Icons_copy" fill="#000"><path id="Shape" d="m3 60h54c1.6568542 0 3-1.3431458 3-3v-13c.0040448-2.1904112-1.4208492-4.1273744-3.5131316-4.7756581-2.0922824-.6482838-4.3627266.1436965-5.5978684 1.9526581-.8670585-.5818601-1.8548697-.9593415-2.889-1.104v-10.019c.1981549-.2413749.3741974-.5000839.526-.773 1.2937712.4056585 2.7027551.1839565 3.8094346-.5994101 1.1066795-.7833667 1.7841149-2.0385433 1.8315654-3.3935899 2.7822183-.0936702 5.139389-2.0782433 5.7057244-4.8038216.5663355-2.7255783-.8051218-5.484906-3.3197244-6.6791784.0779946-.4137774.1171648-.8339361.117-1.255.0096129-2.1426641-.9855305-4.16598445-2.6885371-5.46631929-1.7030065-1.30033485-3.9170037-1.7273618-5.9814629-1.15368071-.9720623-1.21613417-2.4431215-1.92592023-4-1.93-.5008427.0013353-.9986739.07750989-1.477.226-2.0696604-1.98907092-5.0484242-2.71275777-7.8-1.895-1.1251239-1.46941734-2.8702998-2.33115906-4.721-2.33115906s-3.5958761.86174172-4.721 2.33115906c-2.7524691-.81646734-5.731362-.09083958-7.8 1.9-.4793485-.15057949-.9785633-.22844486-1.481-.231-1.5569453.00378935-3.0281235.71363282-4 1.93-2.06445923-.57368109-4.27845643-.14665414-5.98146294 1.15368071-1.70300652 1.30033484-2.69814994 3.32365519-2.68853706 5.46631929-.00016476.4210639.03900542.8412226.117 1.255-2.51460263 1.1942724-3.88605988 3.9536001-3.31972444 6.6791784.56633543 2.7255783 2.92350612 4.7101514 5.70572444 4.8038216.04745046 1.3550466.72488593 2.6102232 1.83156543 3.3935899 1.1066795.7833666 2.51566337 1.0050686 3.80943457.5994101.1518026.2729161.3278451.5316251.526.773v10.019c-1.0338.1434502-2.02158774.5195549-2.889 1.1-1.23555576-1.8095803-3.50705285-2.6014217-5.59978637-1.9520794-2.09273351.6493423-3.51702205 2.5879278-3.51121363 4.7790794v13c0 1.6568542 1.34314575 3 3 3zm54-2h-54c-.55228475 0-1-.4477153-1-1s.44771525-1 1-1h54c.5522847 0 1 .4477153 1 1s-.4477153 1-1 1zm-37.384-8.721c.86695-2.5026198.2408067-5.2803558-1.616-7.169v-4.927c.8935331-.3186556 1.885135-.1959105 2.674.331.1665449.1145179.3638823.1758807.566.176.1063027-.0002384.2119134-.0171091.313-.05.2967039-.0974338.5308543-.3278851.633-.623.412723-1.2030125 1.5421668-2.0125677 2.814-2.017.3424707.0076162.6809438.0753108 1 .2v12.8c0 4.534-.233 6-3 6 .0043556-2.1375624-1.3582906-4.0385827-3.384-4.721zm-3.616-17.279v8.685c-.6322965-.3014896-1.3066108-.5054697-2-.605v-8.494c.6317058.2721614 1.3121606.4130155 2 .414zm4.508-2.691c1.2574648.7497698 2.784754.8965539 4.162.4.3346293.6508764.7853634 1.2351362 1.33 1.724v1.681c-.3285062-.0724069-.6636258-.1106106-1-.114-1.7100273.0023475-3.2992072.8820788-4.209 2.33-.8910804-.3349688-1.8589914-.409877-2.791-.216v-3.528c1.0657909-.4592297 1.9482412-1.2604017 2.508-2.277zm18.984 0c.5597588 1.0165983 1.4422091 1.8177703 2.508 2.277v3.528c-.9320051-.1939324-1.8999316-.119023-2.791.216-.9097928-1.4479212-2.4989727-2.3276525-4.209-2.33-.3363742.0033894-.6714938.0415931-1 .114v-1.681c.5444427-.4882696.9951659-1.0718375 1.33-1.722 1.377246.4965539 2.9045352.3497698 4.162-.4zm4.508 11.376v-8.685c.6878394-.0009845 1.3682942-.1418386 2-.414v8.494c-.6933892.0995303-1.3677035.3035104-2 .605zm-3.616 8.594c-2.0257094.6824173-3.3883556 2.5834376-3.384 4.721-2.767 0-3-1.466-3-6v-12.8c.3190562-.1246892.6575293-.1923838 1-.2 1.2718332.0044323 2.401277.8139875 2.814 2.017.1021457.2951149.3362961.5255662.633.623.1010866.0328909.2066973.0497616.313.05.2021177-.0001193.3994551-.0614821.566-.176.788865-.5269105 1.7804669-.6496556 2.674-.331v4.927c-1.8568067 1.8886442-2.48295 4.6663802-1.616 7.169zm-7.502 4.721h-5.764c.881-1.549.882-3.8.882-6v-15.364c1.2891762.4852882 2.7108238.4852882 4 0v15.364c0 2.205 0 4.451.882 6zm18.568-10.287c.3373278-.0796018.6093836-.328198.719-.657.4586648-1.3981046 1.8663575-2.2546901 3.3188636-2.0195391 1.452506.2351511 2.5180262 1.4921332 2.5121364 2.9635391v10.184c-.320257-.1184378-.6585603-.1806856-1-.184h-18c-.0023106-1.6014019 1.261832-2.9181067 2.862-2.981.3491916-.0155383.6649275-.212275.8327479-.5188896.1678204-.3066147.1633662-.6786021-.0117479-.9811104-.9051052-1.5456997-.9132742-3.4577082-.0214097-5.0110853.8918645-1.5533772 2.5472098-2.5102865 4.3384097-2.5079147 1.3172489-.0061554 2.5822231.5148857 3.513 1.447.2451256.2450645.5996743.3457154.937.266zm-4.721-36.1c.2472463.43841191.7818074.6247373 1.248.435 1.4982319-.61767271 3.2060503-.44555523 4.5509042.45864954s2.1487184 2.42080286 2.1420958 4.04135046c-.0005866.5268964-.0874006 1.0501451-.257 1.549-.0876784.2590321-.0654489.5426706.0615131.7848808s.3475784.421858.6104869.4971192c1.9270629.5537472 3.1549322 2.4387903 2.882489 4.42524-.2724431 1.9864497-1.9624956 3.4712975-3.967489 3.48576-.2577001.0021706-.514874-.0236473-.767-.077-.3459503-.0754394-.7060015.0376894-.946636.2974349s-.3259709.6273767-.224364.9665651c.0682524.2110897.1046525.4311756.108.653.0011101 1.2944272-1.0455798 2.3455902-2.34 2.35-.4524632.0034057-.8955496-.1289629-1.272-.38-.2665867-.1790758-.6029581-.2192205-.904201-.1079131-.3012428.1113074-.530698.3605214-.616799.6699131-.3484193 1.3321366-1.5262529 2.2802919-2.9020664 2.3361613-1.3758134.0558695-2.6266481-.7936617-3.0819336-2.0931613.6136123-.8444946.9450213-1.8611191.947-2.905 3.3074096-.0002312 6.1633331-2.3153173 6.8479188-5.5511017s-.9890015-6.5091662-4.0129188-7.8488983c.3965899-1.90738428.0761635-3.89402756-.9-5.58 1.1494974-.01000956 2.21604.59731662 2.794 1.591zm-23.729-3.613c.7866577-.00126908 1.5657323.15373006 2.292.456.4650341.19286042 1.0009348.0099431 1.251-.427.6997899-1.25247457 2.022288-2.02848479 3.457-2.02848479s2.7572101.77601022 3.457 2.02848479c.2500652.4369431.7859659.61986042 1.251.427.7262677-.30226994 1.5053423-.45726908 2.292-.456 1.9325035-.00359016 3.7479886.92553596 4.8753787 2.4951137 1.12739 1.56957775 1.4281307 3.5867085.8076213 5.4168863-.0872234.2594452-.0642875.5433033.0634588.7853789.1277464.2420756.3491361.421207.6125412.4956211 2.553121.754904 4.0669056 3.3780432 3.4430963 5.9663185-.6238092 2.5882752-3.1663934 4.2337748-5.7830963 3.7426815-.3432139-.0687584-.6973967.0469435-.9338304.3050571s-.3206981.6210625-.2221696.9569429c.0858411.2705784.131988.5521757.137.836-.0017763 1.1026993-.6083501 2.1155397-1.5796282 2.6376199-.971278.5220802-2.1506783.4692345-3.0713718-.1376199-.266866-.1768729-.6022867-.2152743-.9022228-.1032928-.2999361.1119814-.5281209.3608053-.6137772.6692928-.4686923 1.731125-2.039549 2.933237-3.833 2.933237s-3.3643077-1.202112-3.833-2.933237c-.0856563-.3084875-.3138411-.5573114-.6137772-.6692928-.2999361-.1119815-.6353568-.0735801-.9022228.1032928-.9206935.6068544-2.1000938.6597001-3.0713718.1376199-.9712781-.5220802-1.5778519-1.5349206-1.5796282-2.6376199.005012-.2838243.0511589-.5654216.137-.836.0994167-.3361489.0155622-.6998115-.221011-.9584868-.2365733-.2586752-.5913205-.374591-.934989-.3055132-2.6167029.4910933-5.1592871-1.1544063-5.7830963-3.7426815-.6238093-2.5882753.8899753-5.2114145 3.4430963-5.9663185.2634051-.0744141.4847948-.2535455.6125412-.4956211.1277463-.2420756.1506822-.5259337.0634588-.7853789-.6197057-1.8299302-.3185727-3.84642498.808718-5.41546775 1.1272908-1.56904277 2.9422705-2.49790274 4.874282-2.49453225zm-11.558 23.1c-.3764504.2510371-.8195368.3834057-1.272.38-1.2944202-.0044098-2.34111009-1.0555728-2.34-2.35.00334747-.2218244.03974759-.4419103.108-.653.10160695-.3391884.01627053-.7068196-.22436398-.9665651s-.60068573-.3728743-.94663602-.2974349c-.25212602.0533527-.50929994.0791706-.767.077-2.00235243-.0177937-3.68856598-1.501719-3.96072149-3.4855696-.2721555-1.9838506.95213673-3.8670551 2.87572149-4.4234304.26267021-.075284.48309353-.2547745.61002974-.4967467.12693621-.2419721.14932805-.525348.06197026-.7842533-.50172722-1.480318-.26086213-3.1116041.64727604-4.38375053.90813818-1.27214643 2.37270416-2.02987785 3.93572396-2.03624947.6355577.00067313 1.2649146.12498217 1.853.366.4661926.1897373 1.0007537.00341191 1.248-.435.5800428-.99402139 1.649192-1.59999989 2.8-1.587-.9761635 1.68597244-1.2965899 3.67261572-.9 5.58-3.0177868 1.3420822-4.6869123 4.6109064-4.004479 7.8423932s3.5307273 5.5463114 6.833479 5.5536068c.0019787 1.0438809.3333877 2.0605054.947 2.905-.4552855 1.2994996-1.7061202 2.1490308-3.0819336 2.0931613-1.3758135-.0558694-2.5536471-1.0040247-2.9020664-2.3361613-.086101-.3093917-.3155562-.5586057-.616799-.6699131-.3012429-.1113074-.6376143-.0711627-.904201.1079131zm-6.442 13.9c1.28830435.0031088 2.42945877.8318667 2.831 2.056.10953626.3288956.3815938.577601.71897332.6572601.33737952.079659.69194786-.0210931.93702668-.2662601.9307769-.9321143 2.1957511-1.4531554 3.513-1.447 1.7902652-.001741 3.4445583.954758 4.3362245 2.5071702.8916663 1.5524122.884332 3.4633079-.0192245 5.0088298-.1751141.3025083-.1795683.6744957-.0117479.9811104.1678204.3066146.4835563.5033513.8327479.5188896 1.6013321.0629359 2.8659261 1.3814364 2.862 2.984h-18c-.34143967.0033144-.67974302.0655622-1 .184v-10.184c0-.7956495.31607052-1.5587112.87867966-2.1213203.56260913-.5626092 1.32567087-.8786797 2.12132034-.8786797z"></path><path id="Shape" d="m25 23c.5522847 0 1-.4477153 1-1s-.4477153-1-1-1c-1.1045695 0-2-.8954305-2-2 0-.5522847-.4477153-1-1-1s-1 .4477153-1 1c0 2.209139 1.790861 4 4 4z"></path><path id="Shape" d="m28 15c.5522847 0 1-.4477153 1-1s-.4477153-1-1-1c-1.1045695 0-2-.8954305-2-2 0-.5522847-.4477153-1-1-1s-1 .4477153-1 1c0 2.209139 1.790861 4 4 4z"></path><path id="Shape" d="m35 20c2.209139 0 4-1.790861 4-4 0-.5522847-.4477153-1-1-1s-1 .4477153-1 1c0 1.1045695-.8954305 2-2 2-.5522847 0-1 .4477153-1 1s.4477153 1 1 1z"></path><circle id="Oval" cx="7" cy="48" r="1"></circle><circle id="Oval" cx="13" cy="51" r="1"></circle><circle id="Oval" cx="53" cy="48" r="1"></circle><circle id="Oval" cx="47" cy="51" r="1"></circle></g></g></g>
    </symbol>
        
    <symbol id="soil">
        <g id="Page-1" stroke="none" stroke-width="1" fill="none" fill-rule="evenodd">
            <g
            id="013---Mineral-Veins"
            transform="translate(-1.000000, 0.000000)"
            fill-rule="nonzero"
            >
            <rect
                id="Rectangle-path"
                fill="#00838F"
                x="2"
                y="1"
                width="58"
                height="58"
                rx="2"
            ></rect>
            <rect
                id="Rectangle-path"
                fill="#00BCD4"
                x="2"
                y="1"
                width="55"
                height="58"
                rx="2"
            ></rect>
            <path
                d="M45,7 C45,10.3137085 42.3137085,13 39,13 C38.4940975,12.9984622 37.9903084,12.9346489 37.5,12.81 C34.8510018,12.1285516 32.9993221,9.74024469 32.9993221,7.005 C32.9993221,4.26975531 34.8510018,1.88144836 37.5,1.2 C37.9889242,1.06713792 38.4933451,0.999881793 39,1 C42.3137085,1 45,3.6862915 45,7 Z"
                id="Shape"
                fill="#90AC00"
            ></path>
            <path
                d="M34,12 C34,15.3137085 31.3137085,18 28,18 C27.4940975,17.9984622 26.9903084,17.9346489 26.5,17.81 C23.8510018,17.1285516 21.9993221,14.7402447 21.9993221,12.005 C21.9993221,9.26975531 23.8510018,6.88144836 26.5,6.2 C26.9889242,6.06713792 27.4933451,5.99988179 28,6 C31.3137085,6 34,8.6862915 34,12 Z"
                id="Shape"
                fill="#90AC00"
            ></path>
            <path
                d="M42,7 C41.9935601,9.73389679 40.1454139,12.120059 37.5,12.81 C34.8510018,12.1285516 32.9993221,9.74024469 32.9993221,7.005 C32.9993221,4.26975531 34.8510018,1.88144836 37.5,1.2 C40.1456983,1.88311274 41.9956841,4.26753882 42,7 Z"
                id="Shape"
                fill="#A4C400"
            ></path>
            <path
                d="M31,12 C30.9935601,14.7338968 29.1454139,17.120059 26.5,17.81 C23.8510018,17.1285516 21.9993221,14.7402447 21.9993221,12.005 C21.9993221,9.26975531 23.8510018,6.88144836 26.5,6.2 C29.1456983,6.88311274 30.9956841,9.26753882 31,12 Z"
                id="Shape"
                fill="#A4C400"
            ></path>
            <path
                d="M20.88,23.61 C20.0464969,23.8966992 19.2286944,24.2271581 18.43,24.6 C14.84,26.29 11.58,28.71 7.47,30.69 C5.97471812,30.0745 4.99910539,28.6170057 5,27 C5.00958731,25.5745989 5.76962076,24.259741 7,23.54 C7.60747773,23.1870094 8.29741117,23.0007273 9,23 C9.12,23 9.23,23.01 9.35,23.02 C9.34,23 9.33,22.99 9.33,22.97 C9.11385668,22.5100174 9.00121115,22.0082327 9,21.5 C8.99840604,21.3391053 9.01179718,21.1784117 9.04,21.02 C9.07925949,20.749441 9.14972919,20.4843408 9.25,20.23 C9.84524133,18.68574 11.4437414,17.772383 13.0763619,18.043679 C14.7089825,18.314975 15.9261832,19.6962229 15.99,21.35 C16.0448254,21.3224241 16.1016534,21.2990244 16.16,21.28 C16.5811217,21.0907361 17.0383277,20.9952005 17.5,21 C19.0883822,21.0022478 20.4760983,22.0738273 20.88,23.61 Z"
                id="Shape"
                fill="#007900"
            ></path>
            <path
                d="M18.43,24.6 C14.84,26.29 11.58,28.71 7.47,30.69 C5.97471812,30.0745 4.99910539,28.6170057 5,27 C5.00048828,26.4337862 5.12328912,25.8743601 5.36,25.36 C5.8743601,25.1232891 6.43378616,25.0004883 7,25 C7.12,25 7.23,25.01 7.35,25.02 C7.34,25 7.33,24.99 7.33,24.97 C7.12327503,24.5209473 7.0109557,24.0342302 7,23.54 C7.60747773,23.1870094 8.29741117,23.0007273 9,23 C9.12,23 9.23,23.01 9.35,23.02 C9.34,23 9.33,22.99 9.33,22.97 C9.11385668,22.5100174 9.00121115,22.0082327 9,21.5 C8.99840604,21.3391053 9.01179718,21.1784117 9.04,21.02 C9.07925949,20.749441 9.14972919,20.4843408 9.25,20.23 C9.64894021,20.0769841 10.0727224,19.9990082 10.5,20 C11.6362565,20.0031067 12.7012182,20.5542057 13.36,21.48 C13.7469587,22.0290199 13.9658517,22.6787499 13.99,23.35 C14.0448254,23.3224241 14.1016534,23.2990244 14.16,23.28 C14.5811217,23.0907361 15.0383277,22.9952005 15.5,23 C16.685195,23.000412 17.7889405,23.6031399 18.43,24.6 Z"
                id="Shape"
                fill="#008A00"
            ></path>
            <path
                d="M2,48.17 L2,48.23 C2.55,48.23 3.09,48.23 3.62,48.22 C3.09,48.2 2.55,48.19 2,48.17 Z M41.92,37.02 C46.9916981,37.234998 52.0362355,37.8772733 57,38.94 L57,46.82 C58,46.96 59.01,47.13 60,47.31 L60,38.94 C54.0631277,37.6318393 47.9992027,36.9878827 41.92,37.02 Z M49.25,46.69 C49.7016302,46.5695812 50.1637275,46.4925649 50.63,46.46 C49.1669651,46.3067861 47.6889419,46.3843992 46.25,46.69 C42.14,47.85 48.78,51.69 57,53.63 L57,57 C56.9967052,58.1032019 56.1032019,58.9967052 55,59 L58,59 C59.1032019,58.9967052 59.9967052,58.1032019 60,57 L60,53.63 C51.78,51.69 45.14,47.85 49.25,46.69 Z"
                id="Shape"
                fill="#DFC49C"
            ></path>
            <path
                d="M28,39.85 C20.24,45.57 15,48.05 3.8,48.22 C17.12,48.45 22.58,46.06 31,39.85 C33.6,37.93 37.6,37.16 41.92,37.02 C36.5,36.87 31.2,37.49 28,39.85 Z M50.63,46.46 C52.7683943,46.6159502 54.8955334,46.8997914 57,47.31 L57,46.82 C54.8961826,46.4677549 52.7601087,46.3470349 50.63,46.46 Z"
                id="Shape"
                fill="#DFC49C"
            ></path>
            <path
                d="M57,53.63 L57,57 C56.9967052,58.1032019 56.1032019,58.9967052 55,59 L24.16,59 C28.34,56.09 33.88,55.75 37,54.19 C40.26,52.56 40.2,46.93 34.09,48.18 C32.3046391,48.5989854 30.5899275,49.2761111 29,50.19 C23.11,53.4 14.08,54.03 6.95,53.92 C5.15,53.9 3.48,53.83 2,53.74 L2,48.23 C2.55,48.23 3.09,48.23 3.62,48.22 L3.8,48.22 C17.12,48.45 22.58,46.06 31,39.85 C33.6,37.93 37.6,37.16 41.92,37.02 C46.9916981,37.234998 52.0362355,37.8772733 57,38.94 L57,46.82 C54.8961826,46.4677549 52.7601087,46.3470349 50.63,46.46 C49.1669651,46.3067861 47.6889419,46.3843992 46.25,46.69 C42.14,47.85 48.78,51.69 57,53.63 Z"
                id="Shape"
                fill="#FFE0B2"
            ></path>
            <path
                d="M60,24.67 L60,38.94 C59.11,38.75 58.1,38.56 57,38.36 L57,27.4 C58.1153532,26.6254481 59.124001,25.7075785 60,24.67 Z"
                id="Shape"
                fill="#783E22"
            ></path>
            <path
                d="M57,27.4 L57,38.36 C52.0297008,37.4180056 46.9785219,36.9691608 41.92,37.02 C37.6,37.16 33.6,37.93 31,39.85 C22.58,46.06 17.12,48.45 3.8,48.22 L3.62,48.22 C3.09,48.2 2.55,48.19 2,48.17 L2,42.51 C10.4087324,41.0863591 18.5204469,38.2675383 26,34.17 C33,30.17 35.04,32.42 47,31 C50.5846888,30.667453 54.0258968,29.4286182 57,27.4 Z"
                id="Shape"
                fill="#A0522D"
            ></path>
            <path
                d="M57,38.36 L57,38.94 C52.0362355,37.8772733 46.9916981,37.234998 41.92,37.02 C46.9785219,36.9691608 52.0297008,37.4180056 57,38.36 Z"
                id="Shape"
                fill="#783E22"
            ></path>
            <path
                d="M59,13.07 L59,24.67 C58.3939452,25.3854871 57.7245644,26.0448272 57,26.64 L57,15.07 C53.8593207,16.5290898 50.9323413,18.4097581 48.3,20.66 C51.29,17.23 55.64,14.69 59,13.07 Z"
                id="Shape"
                fill="#624421"
            ></path>
            <path
                d="M57,15.07 L57,26.64 C53.8396458,29.1395807 50.0146216,30.6556812 46,31 C34.04,32.42 32,30.17 25,34.17 C17.5204469,38.2675383 9.40873243,41.0863591 1,42.51 L1,37.29 C11.36,35.03 16.16,28.74 24,27 C32.13,25.19 41.07,26.65 46.41,22.53 C46.9927175,22.0777817 47.5257121,21.5649001 48,21 C48.1,20.88 48.19,20.77 48.3,20.66 C50.9323413,18.4097581 53.8593207,16.5290898 57,15.07 Z"
                id="Shape"
                fill="#825A2C"
            ></path>
            <path
                d="M48.3,20.66 C48.19,20.77 48.1,20.88 48,21 C47.5257121,21.5649001 46.9927175,22.0777817 46.41,22.53 C46.9995727,21.8670904 47.630856,21.2424873 48.3,20.66 Z"
                id="Shape"
                fill="#624421"
            ></path>
            <path
                d="M3.88,36.82 C10.91,34.08 15.28,29.67 21.51,28.12 C15.97,30.42 11.46,34.69 3.88,36.82 Z"
                id="Shape"
                fill="#549414"
            ></path>
            <path
                d="M39,21.13 C39.39,21.06 39.77,20.97 40.14,20.88 C38.8120229,21.4527404 37.4230432,21.8721184 36,22.13 C32.64,22.76 28.83,22.84 25,23.23 C23.3193475,23.3857397 21.6496391,23.6428747 20,24 C19.8440878,24.0293662 19.690389,24.0694615 19.54,24.12 C19.98,23.93 20.42,23.77 20.88,23.61 C21.5734531,23.3632735 22.281464,23.1595534 23,23 C24.6496391,22.6428747 26.3193475,22.3857397 28,22.23 C31.83,21.84 35.64,21.76 39,21.13 Z"
                id="Shape"
                fill="#549414"
            ></path>
            <path
                d="M60,8.17 L60,13.07 C56.53,14.74 52,17.4 49,21 C47.1966706,23.0280087 44.7686374,24.3968564 42.1,24.89 C43.6094014,24.2471523 44.9456628,23.2569482 46,22 C49,18.4 53.53,15.74 57,14.07 L57,9.57 C58.1,9.01 59.12,8.54 60,8.17 Z"
                id="Shape"
                fill="#549414"
            ></path>
            <path
                d="M57,9.57 L57,14.07 C53.53,15.74 51,18.9 48,22.5 C46.92,23.8 43.6,24.23 42.1,24.89 C37.06,26.09 30.82,25.71 25,27 C23.8061296,27.2704717 22.6383122,27.6452441 21.51,28.12 C15.28,29.67 10.91,34.08 3.88,36.82 C3.86354424,36.8243126 3.84684863,36.8276517 3.83,36.83 C3.24,37 2.63,37.15 2,37.29 L2,32.79 C3.87940259,32.2458389 5.70928856,31.5433233 7.47,30.69 C12,28.51 15.49,25.79 19.54,24.12 C19.690389,24.0694615 19.8440878,24.0293662 20,24 C21.6496391,23.6428747 23.3193475,23.3857397 25,23.23 C28.83,22.84 32.64,22.76 36,22.13 C37.4230432,21.8721184 38.8120229,21.4527404 40.14,20.88 C42.7937639,20.3834565 45.2070541,19.0185052 47,17 C49.8153489,13.8931857 53.2128358,11.3688529 57,9.57 Z"
                id="Shape"
                fill="#60A917"
            ></path>
            <path
                d="M42.1,24.89 C36.71,27.32 29.05,26.43 22,28 L21.51,28.12 C22.6383122,27.6452441 23.8061296,27.2704717 25,27 C30.82,25.71 37.06,26.09 42.1,24.89 Z"
                id="Shape"
                fill="#549414"
            ></path>
            <path
                d="M37,54.19 C33.88,55.75 28.34,56.09 24.16,59 L4,59 C2.8954305,59 2,58.1045695 2,57 L2,53.74 C9.32,54.19 21.63,54.21 29,50.19 C30.9650525,48.9855283 33.1767203,48.2403295 35.47,48.01 C40.19,47.83 40,52.69 37,54.19 Z"
                id="Shape"
                fill="#F57C00"
            ></path>
            <path
                d="M34,53.19 C30.88,54.75 25.34,55.09 21.16,58 L2.27,58 C2.09374649,57.6961604 2.00062334,57.3512598 2,57 L2,53.74 C9.32,54.19 21.63,54.21 29,50.19 C30.9650525,48.9855283 33.1767203,48.2403295 35.47,48.01 C36.81,49.48 36.08,52.15 34,53.19 Z"
                id="Shape"
                fill="#FF9801"
            ></path>
            <path
                d="M60,47.31 L60,53.63 C58.97,53.39 57.96,53.11 57,52.82 C50.28,50.77 45.66,47.7 49.25,46.69 C49.7016302,46.5695812 50.1637275,46.4925649 50.63,46.46 C53.7762338,46.3627246 56.9226303,46.6481501 60,47.31 Z"
                id="Shape"
                fill="#F57C00"
            ></path>
            <path
                d="M57,47.31 L57,52.82 C50.28,50.77 45.66,47.7 49.25,46.69 C49.7016302,46.5695812 50.1637275,46.4925649 50.63,46.46 C52.7683943,46.6159502 54.8955334,46.8997914 57,47.31 Z"
                id="Shape"
                fill="#FF9801"
            ></path>
            <path
                d="M39,14 C35.1340068,14 32,10.8659932 32,7 C32,3.13400675 35.1340068,7.10171439e-16 39,0 C42.8659932,-7.10171439e-16 46,3.13400675 46,7 C45.9955914,10.8641657 42.8641657,13.9955914 39,14 Z M39,2 C36.9776888,2 35.1545073,3.21821089 34.3806023,5.08658284 C33.6066973,6.95495479 34.0344761,9.10554393 35.4644661,10.5355339 C36.8944561,11.9655239 39.0450452,12.3933027 40.9134172,11.6193977 C42.7817891,10.8454927 44,9.02231122 44,7 C43.9966939,4.23994685 41.7600532,2.00330612 39,2 Z"
                id="Shape"
                fill="#000000"
            ></path>
            <path
                d="M39,22.13 C38.4477153,22.13 38,21.6822847 38,21.13 L38,6 C38,5.44771525 38.4477153,5 39,5 C39.5522847,5 40,5.44771525 40,6 L40,21.13 C40,21.6822847 39.5522847,22.13 39,22.13 Z"
                id="Shape"
                fill="#000000"
            ></path>
            <path
                d="M39,11 C38.7348052,10.9999434 38.4804927,10.8945494 38.293,10.707 L35.293,7.707 C34.9140278,7.31462111 34.9194476,6.69091522 35.3051814,6.30518142 C35.6909152,5.91944763 36.3146211,5.91402779 36.707,6.293 L39,8.586 L41.293,6.293 C41.5440745,6.03304342 41.9158779,5.9287874 42.2655073,6.02030284 C42.6151368,6.11181828 42.8881817,6.38486324 42.9796972,6.73449268 C43.0712126,7.08412211 42.9669566,7.45592553 42.707,7.707 L39.707,10.707 C39.5195073,10.8945494 39.2651948,10.9999434 39,11 Z"
                id="Shape"
                fill="#000000"
            ></path>
            <path
                d="M28,19 C24.1340068,19 21,15.8659932 21,12 C21,8.13400675 24.1340068,5 28,5 C31.8659932,5 35,8.13400675 35,12 C34.9955914,15.8641657 31.8641657,18.9955914 28,19 Z M28,7 C25.2385763,7 23,9.23857625 23,12 C23,14.7614237 25.2385763,17 28,17 C30.7614237,17 33,14.7614237 33,12 C32.9966939,9.23994685 30.7600532,7.00330612 28,7 Z"
                id="Shape"
                fill="#000000"
            ></path>
            <path
                d="M28,23.23 C27.4477153,23.23 27,22.7822847 27,22.23 L27,11 C27,10.4477153 27.4477153,10 28,10 C28.5522847,10 29,10.4477153 29,11 L29,22.23 C29,22.7822847 28.5522847,23.23 28,23.23 Z"
                id="Shape"
                fill="#000000"
            ></path>
            <path
                d="M28,16 C27.7348052,15.9999434 27.4804927,15.8945494 27.293,15.707 L24.293,12.707 C23.9140278,12.3146211 23.9194476,11.6909152 24.3051814,11.3051814 C24.6909152,10.9194476 25.3146211,10.9140278 25.707,11.293 L28,13.586 L30.293,11.293 C30.6853789,10.9140278 31.3090848,10.9194476 31.6948186,11.3051814 C32.0805524,11.6909152 32.0859722,12.3146211 31.707,12.707 L28.707,15.707 C28.5195073,15.8945494 28.2651948,15.9999434 28,16 Z"
                id="Shape"
                fill="#000000"
            ></path>
            <path
                d="M2,33.791 C1.50060348,33.7919775 1.07704264,33.4243713 1.00772314,32.9298082 C0.938403646,32.4352451 1.24457867,31.9653568 1.725,31.829 C5.59447522,30.6122115 9.27829732,28.8692267 12.673,26.649 C15.919,24.705 18.985,22.87 22.783,22.024 C25.782998,21.430977 28.8218985,21.0553337 31.876,20.9 C37.92,20.453 43.14,20.067 46.232,16.357 C49.849,12.01 55.502,9.004 59.606,7.247 C59.9345057,7.10623736 60.3131535,7.15142302 60.5993104,7.36553599 C60.8854672,7.57964896 61.0356592,7.93016038 60.9933104,8.28503599 C60.9509615,8.6399116 60.7225057,8.94523736 60.394,9.086 C57.194,10.454 51.309,13.386 47.769,17.637 C44.134,22 38.251,22.437 32.024,22.9 C29.066316,23.048081 26.1230817,23.4083406 23.217,23.978 C19.735,24.753 16.804,26.508 13.701,28.367 C10.1590073,30.6802883 6.31385017,32.4921495 2.275,33.751 C2.18571933,33.7774223 2.09310835,33.790893 2,33.791 Z"
                id="Shape"
                fill="#000000"
            ></path>
            <path
                d="M2,38.29 C1.48945904,38.2893691 1.06137106,37.9042538 1.00693617,37.3966227 C0.952501271,36.8889916 1.28920071,36.4218657 1.788,36.313 C7.181,35.136 10.993,32.854 14.679,30.646 C17.924,28.702 20.989,26.866 24.784,26.024 C27.7836689,25.4310247 30.8222335,25.0553816 33.876,24.9 C39.92,24.453 45.14,24.067 48.232,20.357 C51.377,16.582 56.132,13.819 59.566,12.166 C59.8897864,11.9933453 60.2821265,12.0118917 60.5881823,12.2143198 C60.894238,12.4167478 61.0648441,12.7705392 61.0326703,13.1360691 C61.0004965,13.501599 60.7707112,13.8201481 60.434,13.966 C57.178,15.533 52.684,18.136 49.768,21.635 C46.134,26 40.251,26.437 34.024,26.9 C31.066316,27.048081 28.1230817,27.4083406 25.217,27.978 C21.737,28.751 18.808,30.505 15.706,32.363 C12.059,34.547 7.926,37.023 2.213,38.269 C2.14298703,38.2838034 2.07155586,38.2908459 2,38.29 Z"
                id="Shape"
                fill="#000000"
            ></path>
            <path
                d="M58,60 L4,60 C2.34314575,60 1,58.6568542 1,57 L1,3 C1,1.34314575 2.34314575,3.04359188e-16 4,0 L58,0 C59.6568542,1.01453063e-16 61,1.34314575 61,3 L61,57 C61,58.6568542 59.6568542,60 58,60 Z M4,2 C3.44771525,2 3,2.44771525 3,3 L3,57 C3,57.5522847 3.44771525,58 4,58 L58,58 C58.5522847,58 59,57.5522847 59,57 L59,3 C59,2.44771525 58.5522847,2 58,2 L4,2 Z"
                id="Shape"
                fill="#000000"
            ></path>
            <path
                d="M2,43.51 C1.4802931,43.5096135 1.04750752,43.111196 1.00421872,42.5932949 C0.960929907,42.0753939 1.32156871,41.6106579 1.834,41.524 C10.1245806,40.1157317 18.1226907,37.3363665 25.5,33.3 C30.166,30.634 32.782,30.61 37.117,30.57 C40.3789786,30.5759623 43.6384168,30.3876288 46.878,30.006 C52.256,29.361 56.413,27.347 59.233,24.022 C59.4641508,23.7494064 59.82317,23.6208369 60.1748184,23.6847226 C60.5264669,23.7486083 60.8173208,23.9952433 60.9378184,24.3317226 C61.058316,24.6682019 60.9901508,25.0434064 60.759,25.316 C58.588,27.875 54.459,31.11 47.115,31.992 C43.8027858,32.3828322 40.4701867,32.5755085 37.135,32.569 C32.99,32.608 30.705,32.629 26.492,35.037 C18.9097392,39.1888933 10.6889454,42.0490199 2.167,43.5 C2.11167643,43.5076544 2.05584166,43.5109978 2,43.51 Z"
                id="Shape"
                fill="#000000"
            ></path>
            <path
                d="M5.514,49.231 C4.39,49.231 3.214,49.21 1.967,49.169 C1.60973439,49.1572103 1.28589711,48.9557171 1.11747454,48.6404212 C0.949051964,48.3251252 0.961631494,47.9439273 1.15047454,47.6404211 C1.33931759,47.3369149 1.67573439,47.1572102 2.033,47.169 C16.249,47.634 21.583,45.549 30.407,39.044 C37.101,34.106 51.949,36.244 60.207,37.96 C60.7384774,38.080617 61.0755056,38.6045962 60.9648528,39.1382371 C60.8541999,39.671878 60.3366176,40.0186499 59.801,39.918 C53.419,38.593 37.894,36.012 31.601,40.654 C23.272,46.79 17.671,49.231 5.514,49.231 Z"
                id="Shape"
                fill="#000000"
            ></path>
            <path
                d="M24.161,60 C23.7237616,60.000469 23.3369168,59.7168208 23.2058866,59.2996773 C23.0748563,58.8825338 23.2300268,58.4286315 23.589,58.179 C26.2440951,56.5293206 29.167065,55.3563423 32.226,54.713 C33.7088359,54.3764968 35.1573464,53.9034797 36.553,53.3 C37.4645578,52.8549846 38.0714033,51.9595638 38.147,50.948 C38.2010927,50.3279943 37.9063456,49.7292533 37.382,49.394 C36.856,49.063 34.729,48.209 29.482,51.073 C22.182,55.056 10.475,55.265 1.941,54.743 C1.38871525,54.7087583 0.968758346,54.2332847 1.003,53.681 C1.03724165,53.1287153 1.51271525,52.7087583 2.065,52.743 C8.835,53.16 21.276,53.267 28.524,49.313 C34.051,46.299 36.971,46.77 38.447,47.695 C39.5917104,48.4070223 40.2465915,49.6955971 40.147,51.04 C40.0300308,52.7724245 39.0020551,54.3124845 37.447,55.085 C35.9335738,55.753953 34.3597768,56.2769893 32.747,56.647 C29.9141319,57.2384167 27.2040049,58.3123874 24.735,59.822 C24.5666448,59.9391966 24.3661259,60.0013784 24.161,60 Z"
                id="Shape"
                fill="#000000"
            ></path>
            <path
                d="M60,54.63 C59.922523,54.6303435 59.8452911,54.6212771 59.77,54.603 C54.67,53.4 47.06,50.586 47,47.771 C46.987,47.22 47.229,46.222 48.98,45.728 C51.071,45.142 54.84,45.343 60.18,46.328 C60.7080837,46.4421688 61.0499927,46.9551528 60.9521548,47.4865046 C60.8543168,48.0178564 60.3521149,48.3754141 59.818,48.294 C53.541,47.139 50.753,47.308 49.518,47.654 C49.3579778,47.6954403 49.2030343,47.7544664 49.056,47.83 C49.644,48.78 53.736,51.13 60.227,52.658 C60.7179196,52.7766115 61.0433417,53.2426552 60.9855865,53.7443872 C60.9278314,54.2461193 60.5050297,54.6260338 60,54.63 Z"
                id="Shape"
                fill="#000000"
            ></path>
            <circle id="Oval" fill="#000000" cx="37" cy="45" r="1"></circle>
            <circle id="Oval" fill="#000000" cx="44" cy="40" r="1"></circle>
            <circle id="Oval" fill="#000000" cx="41" cy="43" r="1"></circle>
            <circle id="Oval" fill="#000000" cx="40" cy="56" r="1"></circle>
            <circle id="Oval" fill="#000000" cx="44" cy="56" r="1"></circle>
            <circle id="Oval" fill="#000000" cx="48" cy="56" r="1"></circle>
            <circle id="Oval" fill="#000000" cx="56" cy="56" r="1"></circle>
            <circle id="Oval" fill="#000000" cx="52" cy="56" r="1"></circle>
            <circle id="Oval" fill="#000000" cx="47" cy="53" r="1"></circle>
            <circle id="Oval" fill="#000000" cx="43" cy="53" r="1"></circle>
            <circle id="Oval" fill="#000000" cx="44" cy="50" r="1"></circle>
            <circle id="Oval" fill="#000000" cx="41" cy="47" r="1"></circle>
            <circle id="Oval" fill="#000000" cx="48" cy="40" r="1"></circle>
            <circle id="Oval" fill="#000000" cx="52" cy="41" r="1"></circle>
            <circle id="Oval" fill="#000000" cx="46" cy="43" r="1"></circle>
            <circle id="Oval" fill="#000000" cx="45" cy="46" r="1"></circle>
            <circle id="Oval" fill="#000000" cx="50" cy="43" r="1"></circle>
            <circle id="Oval" fill="#000000" cx="55" cy="43" r="1"></circle>
            <circle id="Oval" fill="#000000" cx="40" cy="40" r="1"></circle>
            <circle id="Oval" fill="#000000" cx="36" cy="41" r="1"></circle>
            <circle id="Oval" fill="#000000" cx="33" cy="44" r="1"></circle>
            <circle id="Oval" fill="#000000" cx="29" cy="46" r="1"></circle>
            <circle id="Oval" fill="#000000" cx="25" cy="48" r="1"></circle>
            <circle id="Oval" fill="#000000" cx="21" cy="50" r="1"></circle>
            <circle id="Oval" fill="#000000" cx="16" cy="51" r="1"></circle>
            <circle id="Oval" fill="#000000" cx="11" cy="51" r="1"></circle>
            <circle id="Oval" fill="#000000" cx="6" cy="51" r="1"></circle>
            <path
                d="M7.47,31.69 C7.33889039,31.6902115 7.20904462,31.6643783 7.088,31.614 C4.80908495,30.6738679 3.55712173,28.2114749 4.14020693,25.8162059 C4.72329213,23.4209368 6.96695797,21.8094919 9.423,22.022 C10.0620645,22.0702271 10.6846629,22.2478208 11.253,22.544 C11.5791013,22.704083 11.7927391,23.0284232 11.8110609,23.3912357 C11.8293828,23.7540483 11.6495066,24.0982607 11.3411913,24.2903814 C11.0328761,24.4825022 10.6446218,24.4923095 10.327,24.316 C9.99935323,24.145398 9.64038958,24.0433231 9.272,24.016 C9.166,24.008 9.086,24 9,24 C7.5742518,24.0068847 6.35030701,25.0162932 6.07213746,26.4146591 C5.79396791,27.8130249 6.53842821,29.2139979 7.853,29.766 C8.29397715,29.9484958 8.54453963,30.4171699 8.45136471,30.885234 C8.35818979,31.3532981 7.94724781,31.6902902 7.47,31.69 Z"
                id="Shape"
                fill="#000000"
            ></path>
            <path
                d="M9.351,24.02 C8.96679553,24.0192798 8.61697595,23.7985048 8.451,23.452 C8.15763345,22.8428779 8.00357253,22.1760776 8,21.5 C8.05147464,19.0892091 9.99407728,17.1474599 12.4048906,17.0970447 C14.8157039,17.0466295 16.8377849,18.9054687 16.99,21.312 C17.0109868,21.8642847 16.5802847,22.3290132 16.028,22.35 C15.4757153,22.3709868 15.0109868,21.9402847 14.99,21.388 C14.8821536,20.0690881 13.7651986,19.0626784 12.442218,19.0923725 C11.1192374,19.1220667 10.0485619,20.1775775 10,21.5 C10.0020081,21.8768984 10.0881004,22.2485985 10.252,22.588 C10.3666048,22.8272206 10.3814702,23.1021736 10.293325,23.3523559 C10.2051798,23.6025382 10.0212467,23.8074497 9.782,23.922 C9.64756613,23.986763 9.50022011,24.0202663 9.351,24.02 Z"
                id="Shape"
                fill="#000000"
            ></path>
            <path
                d="M20.879,24.61 C20.4237538,24.6095506 20.0262666,24.3016728 19.912,23.861 C19.6249301,22.7642247 18.6337217,21.999449 17.5,22 C17.1316589,21.9970138 16.7678072,22.0809532 16.438,22.245 C16.0848915,22.4016201 15.7785461,22.6473168 15.549,22.958 C15.2242566,23.4047983 14.5987984,23.5037434 14.152,23.179 C13.7052017,22.8542565 13.6062566,22.2287984 13.931,21.782 C14.3549642,21.2026311 14.9197914,20.741063 15.572,20.441 C16.1716711,20.1461913 16.8317976,19.9951976 17.5,20 C19.5447902,19.9989677 21.3321357,21.3793509 21.848,23.358 C21.9260886,23.6578738 21.8607467,23.9770069 21.6710854,24.2220593 C21.4814242,24.4671118 21.1888741,24.6103945 20.879,24.61 Z"
                id="Shape"
                fill="#000000"
            ></path>
            </g>
        </g>
    </symbol>
      
    <symbol id="pavilion">
        <path d="m96 216v272h32v-272zm0 0" fill="#dfb28b"></path><path d="m400 216v272h-32v-272zm0 0" fill="#dfb28b"></path><path d="m184 392h-112v-32h352v32zm0 0" fill="#ecc19c"></path><g fill="#cf9e76"><path d="m184 360h32v128h-32zm0 0"></path><path d="m280 360h32v128h-32zm0 0"></path><path d="m128 216h-32v77.6875l29.28125-30.550781 2.71875 2.832031zm0 0"></path><path d="m368 265.96875 2.71875-2.832031 29.28125 30.550781v-77.6875h-32zm0 0"></path></g><path d="m248 240 30.761719 32 30.671875-32 30.644531 32 30.640625-32 30.65625 32 30.625-32c-15.472656-51.558594-49.175781-95.734375-94.832031-124.265625-36.953125-23.101563-64.710938-58.351563-78.488281-99.695313l-2.679688-8.039062h-16l-2.679688 8.039062c-13.785156 41.34375-41.535156 76.59375-78.496093 99.695313-45.648438 28.53125-79.351563 72.707031-94.824219 124.265625l30.625 32 30.65625-32 30.640625 32 30.644531-32 30.671875 32zm0 0" fill="#fcd770"></path><path d="m368 392h32v16h-32zm0 0" fill="#cf9e76"></path><path d="m96 392h32v16h-32zm0 0" fill="#cf9e76"></path><path d="m168 360h16v32h-16zm0 0" fill="#dfb28b"></path><path d="m312 360h16v32h-16zm0 0" fill="#dfb28b"></path><path d="m408 400h24v-48h-24v-75.351562l33-34.480469-1.335938-4.464844c-16.039062-53.457031-50.929687-99.175781-98.25-128.75-35.292968-22.066406-61.980468-55.960937-75.148437-95.441406l-4.496094-13.511719h-27.53125l-4.496093 13.503906c-13.167969 39.480469-39.847657 73.375-75.148438 95.441406-47.320312 29.574219-82.210938 75.300782-98.25 128.75l-1.335938 4.464844 32.992188 34.488282v75.351562h-24v48h24v80h-56v16h432v-16h-56zm-16 80h-16v-80h16zm-216-80v80h-40v-80zm-40-137.238281 19.921875 20.804687 30.644531-32 30.664063 31.992188 30.769531-32.015625 30.769531 32.007812 30.664063-31.992187 30.644531 32 19.921875-20.796875v89.238281h-224zm136 185.238281h-48v-16h48zm0-32h-48v-16h48zm0-32h-48v-16h48zm-80-16h16v112h-16zm32 96h48v16h-48zm64-96h16v112h-16zm32 32h40v80h-40zm96-16h-96v-16h96zm-40-32v-94.921875l16 16.707031v78.214844zm-212.929688-229.480469c38.441407-24.03125 67.503907-60.953125 81.832032-103.953125l.867187-2.566406h4.46875l.859375 2.566406c14.328125 43 43.398438 79.914063 81.832032 103.953125 42.71875 26.6875 74.542968 67.527344 90.03125 115.359375l-21.585938 22.554688-30.65625-32-30.640625 32-30.644531-32-30.679688 32.007812-30.753906-31.984375-30.753906 31.992188-30.679688-32.007813-30.644531 32-30.640625-32-30.65625 32-21.585938-22.554687c15.480469-47.832031 47.3125-88.671875 90.03125-115.367188zm-59.070312 151.265625 16-16.707031v94.921875h-16zm-24 94.214844h96v16h-96zm24 32h16v80h-16zm0 0"></path><path d="m0 480h16v16h-16zm0 0"></path><path d="m480 480h16v16h-16zm0 0"></path><path d="m240 176h16v40h-16zm0 0"></path><path d="m184.570312 149.042969 16.003907-39.996094 14.859375 5.945313-16.003906 39.996093zm0 0"></path><path d="m280.578125 114.96875 14.863281-5.945312 16 40-14.863281 5.945312zm0 0"></path><path d="m240 56h16v40h-16zm0 0"></path><path d="m240 112h16v40h-16zm0 0"></path><path d="m296.136719 177.5625 15.6875-3.140625 8.007812 39.996094-15.6875 3.140625zm0 0"></path><path d="m352.160156 177.574219 15.6875-3.136719 8 40-15.691406 3.136719zm0 0"></path><path d="m176.140625 214.441406 8.007813-40 15.6875 3.144532-8.007813 39.996093zm0 0"></path><path d="m120.140625 214.4375 8.007813-39.996094 15.6875 3.140625-8.007813 39.996094zm0 0"></path>
    </symbol>
</svg>