<!-- icon666.com - MILLIONS vector ICONS FREE --><svg viewBox="0 0 60 60" xmlns="http://www.w3.org/2000/svg"><g id="Page-1" fill="none" fill-rule="evenodd"><g id="003---Jungle-Trees" fill-rule="nonzero"><g id="Icons" transform="translate(0 1)"><path id="Shape" d="m48 17c-.0008456 1.7976545-.8076706 3.500217-2.1984606 4.6391927-1.39079 1.1389756-3.2189922 1.5943463-4.9815394 1.2408073.4752183 1.6059256-.104922 3.3375831-1.4516796 4.3331099-1.3467575.9955268-3.1724132 1.04224-4.5683204.1168901-.4339427 1.5935637-1.6305803 2.8678055-3.1937721 3.400894-1.5631917.5330884-3.2890461.2554914-4.6062279-.740894-.8714565-.6690696-1.5029303-1.6022476-1.8-2.66-1.3959072.9253499-3.2215629.8786367-4.5683204-.1168901-1.3467576-.9955268-1.9268979-2.7271843-1.4516796-4.3331099-3.139089.5880774-6.1886997-1.3858755-6.93755-4.4905394-.7488503-3.104664 1.0655397-6.2518222 4.12755-7.1594606-.868962-2.5999846-.1416811-5.46792807 1.8612542-7.33962917 2.0029353-1.87170109 4.9135158-2.40326291 7.4487458-1.36037083.8772383-1.56155584 2.5289099-2.52814504 4.32-2.52814504s3.4427617.9665892 4.32 2.52814504c2.53523-1.04289208 5.4458105-.51133026 7.4487458 1.36037083 2.0029353 1.8717011 2.7302162 4.73964457 1.8612542 7.33962917 2.5833805.7292434 4.3680544 3.0856664 4.37 5.77z" fill="#a4c400"></path><path id="Shape" d="m43.63 11.23c.7954254-2.3844281.2525207-5.01224723-1.422691-6.88624429-1.6752116-1.87399705-4.2259714-2.7069456-6.684309-2.18275571 1.9344778.43720173 3.5935494 1.67271301 4.5666917 3.4008171.9731423 1.7281041 1.1694355 3.78734565.5403083 5.6681829 3.0620103.9076384 4.8764003 4.0547966 4.12755 7.1594606-.7488503 3.1046639-3.798461 5.0786168-6.93755 4.4905394.6094055 1.9683754-.406639 4.0729455-2.327 4.82 1.418597.5806483 3.0445277.2957124 4.1811411-.7327232 1.1366134-1.0284357 1.5822064-2.6178651 1.1458589-4.0872768 3.139089.5880774 6.1886997-1.3858755 6.93755-4.4905394.7488503-3.104664-1.0655397-6.2518222-4.12755-7.1594606z" fill="#90ac00"></path><path id="Shape" d="m59 56c-.0032948 1.1032019-.8967981 1.9967052-2 2h-54c-.53059053.0028231-1.0395388-.2101411-1.41-.59-.3798589-.3704612-.59282307-.8794095-.59-1.41.0032948-1.1032019.89679813-1.9967052 2-2h54c1.1011688.0081672 1.9918328.8988312 2 2z" fill="#60a917"></path><path id="Shape" d="m58.41 54.59c-.3704612-.3798589-.8794095-.5928231-1.41-.59h-3c1.1011688.0081672 1.9918328.8988312 2 2-.0032948 1.1032019-.8967981 1.9967052-2 2h3c1.1032019-.0032948 1.9967052-.8967981 2-2 .0028231-.5305905-.2101411-1.0395388-.59-1.41z" fill="#549414"></path><path id="Shape" d="m22 53c.0030533.3377372-.0406959.6742693-.13 1h-18.87c-1.10320187.0032948-1.9967052.8967981-2 2v-13c-.00314196-1.9603043 1.41785776-3.6326688 3.35295102-3.9460644 1.93509325-.3133955 3.8113018.8249738 4.42704898 2.6860644 2.1410111-2.100971 5.5046672-2.2979389 7.8762606-.4612156 2.3715933 1.8367234 3.0223254 5.1427069 1.5237394 7.7412156 2.1340006.0889488 3.8186379 1.8441469 3.82 3.98z" fill="#a4c400"></path><path id="Shape" d="m59 43v13c-.0081672-1.1011688-.8988312-1.9918328-2-2h-18.87c-.0893041-.3257307-.1330533-.6622628-.13-1 .0013621-2.1358531 1.6859994-3.8910512 3.82-3.98-1.498586-2.5985087-.8478539-5.9044922 1.5237394-7.7412156 2.3715934-1.8367233 5.7352495-1.6397554 7.8762606.4612156.6157472-1.8610906 2.4919557-2.9994599 4.427049-2.6860644 1.9350932.3133956 3.356093 1.9857601 3.352951 3.9460644z" fill="#a4c400"></path><path id="Shape" d="m55 39c-.5107775.0024021-1.0161938.1043005-1.488.3 1.5035563.613891 2.4866915 2.0759488 2.488 3.7v11h1c1.1011688.0081672 1.9918328.8988312 2 2v-13c0-2.209139-1.790861-4-4-4z" fill="#90ac00"></path><path id="Shape" d="m20.72 27.29c-.2549338-.0874655-.4970673-.2085322-.72-.36-.4029915 1.4475978-1.5458342 2.5713931-3 2.95-2.1880728.5165395-4.3940449-.7849841-5-2.95-.5414486.3618403-1.1787831.5533889-1.83.55-1.84670532-.0044124-3.34110844-1.5032897-3.34-3.35.00350692-.3190045.05405093-.6357469.15-.94-.3220554.0688896-.65066796.1024215-.98.1-2.50252306-.0151893-4.61373807-1.8667503-4.95534262-4.345895-.34160454-2.4791448 1.19018486-4.83268 3.59534262-5.524105-.60526585-1.7854696-.31438916-3.75311294.78159006-5.28708747 1.09597921-1.53397452 2.86314827-2.44685087 4.74840994-2.45291253.764801.0009951 1.5221385.15042493 2.23.44.7278921-1.30611144 2.1047593-2.11693326 3.6-2.12.6018231-.00135522 1.1963314.13189665 1.74.39-1.6497331 1.86959245-2.1724293 4.47925806-1.37 6.84-2.8752692.8198519-4.7081654 3.6314842-4.2980194 6.5930902.4101459 2.961606 2.9381578 5.1693062 5.9280194 5.1769098.3964144.0007045.7918429-.0395086 1.18-.12-.1156995.3622245-.1763754.7397635-.18 1.12.0011037 1.311883.6433676 2.5403995 1.72 3.29z" fill="#60a917"></path><path id="Shape" d="m59 18.26c.0039842 1.3300625-.5205631 2.6072312-1.4582463 3.5505405-.9376832.9433092-2.2116912 1.4754872-3.5417537 1.4794595-.329332.0024215-.6579446-.0311104-.98-.1.0959491.3042531.1464931.6209955.15.94.0011084 1.8467103-1.4932947 3.3455876-3.34 3.35-.6512169.0033889-1.2885514-.1881597-1.83-.55-.5880287 2.1787289-2.8085928 3.4888617-5 2.95-1.4541658-.3786069-2.5970085-1.5024022-3-2.95-.2229327.1514678-.4650662.2725345-.72.36 1.0766324-.7496005 1.7188963-1.978117 1.72-3.29-.0036246-.3802365-.0643005-.7577755-.18-1.12.3881571.0804914.7835856.1207045 1.18.12 2.9898616-.0076036 5.5178735-2.2153038 5.9280194-5.1769098.410146-2.961606-1.4227502-5.7732383-4.2980194-6.5930902.8024293-2.36074194.2797331-4.97040755-1.37-6.84.5436686-.25810335 1.1381769-.39135522 1.74-.39 1.4952407.00306674 2.8721079.81388856 3.6 2.12 1.8071785-.74396465 3.8666045-.5355104 5.4880479.55549792 1.6214433 1.09100833 2.5903378 2.92019727 2.5819521 4.87450208-.000468.6360841-.1051895 1.2677909-.31 1.87 2.1586241.6185824 3.6446431 2.5944977 3.64 4.84z" fill="#60a917"></path><path id="Shape" d="m55.36 13.42c.7084876-2.0415301.2294045-4.30748508-1.2447822-5.88753988s-3.7015305-2.21488743-5.7872178-1.64946012c1.5644475.41870143 2.8856471 1.46658833 3.6495775 2.89459999.7639303 1.42801161.9023728 3.10862731.3824225 4.64240001 2.4051578.691425 3.9369472 3.0449602 3.5953426 5.524105-.3416045 2.4791447-2.4528195 4.3307057-4.9553426 4.345895-.329332.0024215-.6579446-.0311104-.98-.1.0959491.3042531.1464931.6209955.15.94-.0032045 1.2638463-.7190871 2.4177716-1.85 2.982.4665552.2419408.984444.3681548 1.51.368 1.8467053-.0044124 3.3411084-1.5032897 3.34-3.35-.0035069-.3190045-.0540509-.6357469-.15-.94.3220554.0688896.650668.1024215.98.1 2.5025231-.0151893 4.6137381-1.8667503 4.9553426-4.345895.3416046-2.4791448-1.1901848-4.83268-3.5953426-5.524105z" fill="#549414"></path><g fill="#91562d"><path id="Shape" d="m17 29.88v11.66c-1.0947415-.9940165-2.5213123-1.5432462-4-1.54v-11.31c1.0189596 1.0925589 2.5495279 1.547903 4 1.19z"></path><path id="Shape" d="m47 28.69v11.31c-1.4786877-.0032462-2.9052585.5459835-4 1.54v-11.66c1.4504721.357903 2.9810404-.0974411 4-1.19z"></path><path id="Shape" d="m37 54h-14c4 0 4-3 4-7v-17.01c1.77326 1.3468186 4.22674 1.3468186 6 0v17.01c0 4 0 7 4 7z"></path></g><path id="Shape" d="m33 47v-17.01c-.8624612.6560195-1.9163948 1.0108438-3 1.01v16c0 4 0 7 4 7h3c-4 0-4-3-4-7z" fill="#783e22"></path><path id="Shape" d="m27 33.54v13.46c0 4 0 7-4 7h-1.13c.0893041-.3257307.1330533-.6622628.13-1-.0013621-2.1358531-1.6859994-3.8910512-3.82-3.98 1.439772-2.4558839.9458869-5.5866131-1.18-7.48v-6c.6074777-.3529906 1.2974112-.5392727 2-.54.7994497-.003067 1.5808413.2376295 2.24.69.3846561-1.1273515 1.2548392-2.0226331 2.3708004-2.4391812 1.1159612-.416548 2.3599395-.3104064 3.3891996.2891812z" fill="#008a00"></path><path id="Shape" d="m43 35.54v6c-2.1258869 1.8933869-2.619772 5.0241161-1.18 7.48-2.1340006.0889488-3.8186379 1.8441469-3.82 3.98-.0030533.3377372.0406959.6742693.13 1h-1.13c-4 0-4-3-4-7v-13.46c1.0292601-.5995876 2.2732384-.7057292 3.3891996-.2891812 1.1159612.4165481 1.9861443 1.3118297 2.3708004 2.4391812.6591587-.4523705 1.4405503-.693067 2.24-.69.7025888.0007273 1.3925223.1870094 2 .54z" fill="#008a00"></path><path id="Shape" d="m41 35c-.5127384.0022103-1.0201549.1041011-1.494.3.1698458.0688688.3348826.1490486.494.24v6c-2.1258869 1.8933869-2.619772 5.0241161-1.18 7.48-2.1340006.0889488-3.8186379 1.8441469-3.82 3.98.0014763.2193042.0215482.4380881.06.654.6159857.2475386 1.2764186.3653271 1.94.346h1.13c-.0893041-.3257307-.1330533-.6622628-.13-1 .0013621-2.1358531 1.6859994-3.8910512 3.82-3.98-1.439772-2.4558839-.9458869-5.5866131 1.18-7.48v-6c-.6074777-.3529906-1.2974112-.5392727-2-.54z" fill="#007900"></path></g><g id="Icons_copy" fill="#000"><path id="Shape" d="m3 60h54c1.6568542 0 3-1.3431458 3-3v-13c.0040448-2.1904112-1.4208492-4.1273744-3.5131316-4.7756581-2.0922824-.6482838-4.3627266.1436965-5.5978684 1.9526581-.8670585-.5818601-1.8548697-.9593415-2.889-1.104v-10.019c.1981549-.2413749.3741974-.5000839.526-.773 1.2937712.4056585 2.7027551.1839565 3.8094346-.5994101 1.1066795-.7833667 1.7841149-2.0385433 1.8315654-3.3935899 2.7822183-.0936702 5.139389-2.0782433 5.7057244-4.8038216.5663355-2.7255783-.8051218-5.484906-3.3197244-6.6791784.0779946-.4137774.1171648-.8339361.117-1.255.0096129-2.1426641-.9855305-4.16598445-2.6885371-5.46631929-1.7030065-1.30033485-3.9170037-1.7273618-5.9814629-1.15368071-.9720623-1.21613417-2.4431215-1.92592023-4-1.93-.5008427.0013353-.9986739.07750989-1.477.226-2.0696604-1.98907092-5.0484242-2.71275777-7.8-1.895-1.1251239-1.46941734-2.8702998-2.33115906-4.721-2.33115906s-3.5958761.86174172-4.721 2.33115906c-2.7524691-.81646734-5.731362-.09083958-7.8 1.9-.4793485-.15057949-.9785633-.22844486-1.481-.231-1.5569453.00378935-3.0281235.71363282-4 1.93-2.06445923-.57368109-4.27845643-.14665414-5.98146294 1.15368071-1.70300652 1.30033484-2.69814994 3.32365519-2.68853706 5.46631929-.00016476.4210639.03900542.8412226.117 1.255-2.51460263 1.1942724-3.88605988 3.9536001-3.31972444 6.6791784.56633543 2.7255783 2.92350612 4.7101514 5.70572444 4.8038216.04745046 1.3550466.72488593 2.6102232 1.83156543 3.3935899 1.1066795.7833666 2.51566337 1.0050686 3.80943457.5994101.1518026.2729161.3278451.5316251.526.773v10.019c-1.0338.1434502-2.02158774.5195549-2.889 1.1-1.23555576-1.8095803-3.50705285-2.6014217-5.59978637-1.9520794-2.09273351.6493423-3.51702205 2.5879278-3.51121363 4.7790794v13c0 1.6568542 1.34314575 3 3 3zm54-2h-54c-.55228475 0-1-.4477153-1-1s.44771525-1 1-1h54c.5522847 0 1 .4477153 1 1s-.4477153 1-1 1zm-37.384-8.721c.86695-2.5026198.2408067-5.2803558-1.616-7.169v-4.927c.8935331-.3186556 1.885135-.1959105 2.674.331.1665449.1145179.3638823.1758807.566.176.1063027-.0002384.2119134-.0171091.313-.05.2967039-.0974338.5308543-.3278851.633-.623.412723-1.2030125 1.5421668-2.0125677 2.814-2.017.3424707.0076162.6809438.0753108 1 .2v12.8c0 4.534-.233 6-3 6 .0043556-2.1375624-1.3582906-4.0385827-3.384-4.721zm-3.616-17.279v8.685c-.6322965-.3014896-1.3066108-.5054697-2-.605v-8.494c.6317058.2721614 1.3121606.4130155 2 .414zm4.508-2.691c1.2574648.7497698 2.784754.8965539 4.162.4.3346293.6508764.7853634 1.2351362 1.33 1.724v1.681c-.3285062-.0724069-.6636258-.1106106-1-.114-1.7100273.0023475-3.2992072.8820788-4.209 2.33-.8910804-.3349688-1.8589914-.409877-2.791-.216v-3.528c1.0657909-.4592297 1.9482412-1.2604017 2.508-2.277zm18.984 0c.5597588 1.0165983 1.4422091 1.8177703 2.508 2.277v3.528c-.9320051-.1939324-1.8999316-.119023-2.791.216-.9097928-1.4479212-2.4989727-2.3276525-4.209-2.33-.3363742.0033894-.6714938.0415931-1 .114v-1.681c.5444427-.4882696.9951659-1.0718375 1.33-1.722 1.377246.4965539 2.9045352.3497698 4.162-.4zm4.508 11.376v-8.685c.6878394-.0009845 1.3682942-.1418386 2-.414v8.494c-.6933892.0995303-1.3677035.3035104-2 .605zm-3.616 8.594c-2.0257094.6824173-3.3883556 2.5834376-3.384 4.721-2.767 0-3-1.466-3-6v-12.8c.3190562-.1246892.6575293-.1923838 1-.2 1.2718332.0044323 2.401277.8139875 2.814 2.017.1021457.2951149.3362961.5255662.633.623.1010866.0328909.2066973.0497616.313.05.2021177-.0001193.3994551-.0614821.566-.176.788865-.5269105 1.7804669-.6496556 2.674-.331v4.927c-1.8568067 1.8886442-2.48295 4.6663802-1.616 7.169zm-7.502 4.721h-5.764c.881-1.549.882-3.8.882-6v-15.364c1.2891762.4852882 2.7108238.4852882 4 0v15.364c0 2.205 0 4.451.882 6zm18.568-10.287c.3373278-.0796018.6093836-.328198.719-.657.4586648-1.3981046 1.8663575-2.2546901 3.3188636-2.0195391 1.452506.2351511 2.5180262 1.4921332 2.5121364 2.9635391v10.184c-.320257-.1184378-.6585603-.1806856-1-.184h-18c-.0023106-1.6014019 1.261832-2.9181067 2.862-2.981.3491916-.0155383.6649275-.212275.8327479-.5188896.1678204-.3066147.1633662-.6786021-.0117479-.9811104-.9051052-1.5456997-.9132742-3.4577082-.0214097-5.0110853.8918645-1.5533772 2.5472098-2.5102865 4.3384097-2.5079147 1.3172489-.0061554 2.5822231.5148857 3.513 1.447.2451256.2450645.5996743.3457154.937.266zm-4.721-36.1c.2472463.43841191.7818074.6247373 1.248.435 1.4982319-.61767271 3.2060503-.44555523 4.5509042.45864954s2.1487184 2.42080286 2.1420958 4.04135046c-.0005866.5268964-.0874006 1.0501451-.257 1.549-.0876784.2590321-.0654489.5426706.0615131.7848808s.3475784.421858.6104869.4971192c1.9270629.5537472 3.1549322 2.4387903 2.882489 4.42524-.2724431 1.9864497-1.9624956 3.4712975-3.967489 3.48576-.2577001.0021706-.514874-.0236473-.767-.077-.3459503-.0754394-.7060015.0376894-.946636.2974349s-.3259709.6273767-.224364.9665651c.0682524.2110897.1046525.4311756.108.653.0011101 1.2944272-1.0455798 2.3455902-2.34 2.35-.4524632.0034057-.8955496-.1289629-1.272-.38-.2665867-.1790758-.6029581-.2192205-.904201-.1079131-.3012428.1113074-.530698.3605214-.616799.6699131-.3484193 1.3321366-1.5262529 2.2802919-2.9020664 2.3361613-1.3758134.0558695-2.6266481-.7936617-3.0819336-2.0931613.6136123-.8444946.9450213-1.8611191.947-2.905 3.3074096-.0002312 6.1633331-2.3153173 6.8479188-5.5511017s-.9890015-6.5091662-4.0129188-7.8488983c.3965899-1.90738428.0761635-3.89402756-.9-5.58 1.1494974-.01000956 2.21604.59731662 2.794 1.591zm-23.729-3.613c.7866577-.00126908 1.5657323.15373006 2.292.456.4650341.19286042 1.0009348.0099431 1.251-.427.6997899-1.25247457 2.022288-2.02848479 3.457-2.02848479s2.7572101.77601022 3.457 2.02848479c.2500652.4369431.7859659.61986042 1.251.427.7262677-.30226994 1.5053423-.45726908 2.292-.456 1.9325035-.00359016 3.7479886.92553596 4.8753787 2.4951137 1.12739 1.56957775 1.4281307 3.5867085.8076213 5.4168863-.0872234.2594452-.0642875.5433033.0634588.7853789.1277464.2420756.3491361.421207.6125412.4956211 2.553121.754904 4.0669056 3.3780432 3.4430963 5.9663185-.6238092 2.5882752-3.1663934 4.2337748-5.7830963 3.7426815-.3432139-.0687584-.6973967.0469435-.9338304.3050571s-.3206981.6210625-.2221696.9569429c.0858411.2705784.131988.5521757.137.836-.0017763 1.1026993-.6083501 2.1155397-1.5796282 2.6376199-.971278.5220802-2.1506783.4692345-3.0713718-.1376199-.266866-.1768729-.6022867-.2152743-.9022228-.1032928-.2999361.1119814-.5281209.3608053-.6137772.6692928-.4686923 1.731125-2.039549 2.933237-3.833 2.933237s-3.3643077-1.202112-3.833-2.933237c-.0856563-.3084875-.3138411-.5573114-.6137772-.6692928-.2999361-.1119815-.6353568-.0735801-.9022228.1032928-.9206935.6068544-2.1000938.6597001-3.0713718.1376199-.9712781-.5220802-1.5778519-1.5349206-1.5796282-2.6376199.005012-.2838243.0511589-.5654216.137-.836.0994167-.3361489.0155622-.6998115-.221011-.9584868-.2365733-.2586752-.5913205-.374591-.934989-.3055132-2.6167029.4910933-5.1592871-1.1544063-5.7830963-3.7426815-.6238093-2.5882753.8899753-5.2114145 3.4430963-5.9663185.2634051-.0744141.4847948-.2535455.6125412-.4956211.1277463-.2420756.1506822-.5259337.0634588-.7853789-.6197057-1.8299302-.3185727-3.84642498.808718-5.41546775 1.1272908-1.56904277 2.9422705-2.49790274 4.874282-2.49453225zm-11.558 23.1c-.3764504.2510371-.8195368.3834057-1.272.38-1.2944202-.0044098-2.34111009-1.0555728-2.34-2.35.00334747-.2218244.03974759-.4419103.108-.653.10160695-.3391884.01627053-.7068196-.22436398-.9665651s-.60068573-.3728743-.94663602-.2974349c-.25212602.0533527-.50929994.0791706-.767.077-2.00235243-.0177937-3.68856598-1.501719-3.96072149-3.4855696-.2721555-1.9838506.95213673-3.8670551 2.87572149-4.4234304.26267021-.075284.48309353-.2547745.61002974-.4967467.12693621-.2419721.14932805-.525348.06197026-.7842533-.50172722-1.480318-.26086213-3.1116041.64727604-4.38375053.90813818-1.27214643 2.37270416-2.02987785 3.93572396-2.03624947.6355577.00067313 1.2649146.12498217 1.853.366.4661926.1897373 1.0007537.00341191 1.248-.435.5800428-.99402139 1.649192-1.59999989 2.8-1.587-.9761635 1.68597244-1.2965899 3.67261572-.9 5.58-3.0177868 1.3420822-4.6869123 4.6109064-4.004479 7.8423932s3.5307273 5.5463114 6.833479 5.5536068c.0019787 1.0438809.3333877 2.0605054.947 2.905-.4552855 1.2994996-1.7061202 2.1490308-3.0819336 2.0931613-1.3758135-.0558694-2.5536471-1.0040247-2.9020664-2.3361613-.086101-.3093917-.3155562-.5586057-.616799-.6699131-.3012429-.1113074-.6376143-.0711627-.904201.1079131zm-6.442 13.9c1.28830435.0031088 2.42945877.8318667 2.831 2.056.10953626.3288956.3815938.577601.71897332.6572601.33737952.079659.69194786-.0210931.93702668-.2662601.9307769-.9321143 2.1957511-1.4531554 3.513-1.447 1.7902652-.001741 3.4445583.954758 4.3362245 2.5071702.8916663 1.5524122.884332 3.4633079-.0192245 5.0088298-.1751141.3025083-.1795683.6744957-.0117479.9811104.1678204.3066146.4835563.5033513.8327479.5188896 1.6013321.0629359 2.8659261 1.3814364 2.862 2.984h-18c-.34143967.0033144-.67974302.0655622-1 .184v-10.184c0-.7956495.31607052-1.5587112.87867966-2.1213203.56260913-.5626092 1.32567087-.8786797 2.12132034-.8786797z"></path><path id="Shape" d="m25 23c.5522847 0 1-.4477153 1-1s-.4477153-1-1-1c-1.1045695 0-2-.8954305-2-2 0-.5522847-.4477153-1-1-1s-1 .4477153-1 1c0 2.209139 1.790861 4 4 4z"></path><path id="Shape" d="m28 15c.5522847 0 1-.4477153 1-1s-.4477153-1-1-1c-1.1045695 0-2-.8954305-2-2 0-.5522847-.4477153-1-1-1s-1 .4477153-1 1c0 2.209139 1.790861 4 4 4z"></path><path id="Shape" d="m35 20c2.209139 0 4-1.790861 4-4 0-.5522847-.4477153-1-1-1s-1 .4477153-1 1c0 1.1045695-.8954305 2-2 2-.5522847 0-1 .4477153-1 1s.4477153 1 1 1z"></path><circle id="Oval" cx="7" cy="48" r="1"></circle><circle id="Oval" cx="13" cy="51" r="1"></circle><circle id="Oval" cx="53" cy="48" r="1"></circle><circle id="Oval" cx="47" cy="51" r="1"></circle></g></g></g></svg>